<?xml version="1.0" encoding="UTF-8" standalone="no"?>
<!-- Created with Inkscape (http://www.inkscape.org/) -->

<svg
   xmlns:dc="http://purl.org/dc/elements/1.1/"
   xmlns:cc="http://creativecommons.org/ns#"
   xmlns:rdf="http://www.w3.org/1999/02/22-rdf-syntax-ns#"
   xmlns:svg="http://www.w3.org/2000/svg"
   xmlns="http://www.w3.org/2000/svg"
   version="1.1"
   width="800"
   height="800"
   id="svg2">
  <metadata
     id="metadata8">
    <rdf:RDF>
      <cc:Work
         rdf:about="">
        <dc:format>image/svg+xml</dc:format>
        <dc:type
           rdf:resource="http://purl.org/dc/dcmitype/StillImage" />
        <dc:title></dc:title>
      </cc:Work>
    </rdf:RDF>
  </metadata>
  <defs
     id="defs6" />
  <g
     id="layer2"
     style="display:inline">
    <path
       d="m 762.31464,406.50171 a 377,377 0 1 1 -754.0000038,0 377,377 0 1 1 754.0000038,0 z"
       transform="translate(14.68536,-6.501709)"
       id="path3789"
       style="fill:#f8ed9d;fill-opacity:1;stroke:none" />
    <path
       d="m 762.31464,406.50171 a 377,377 0 1 1 -754.0000038,0 377,377 0 1 1 754.0000038,0 z"
       transform="translate(14.68536,-6.501709)"
       id="path3007"
       style="fill:none;stroke:#000000;stroke-width:46;stroke-miterlimit:4;stroke-dasharray:none" />
    <path
       d="m 713.43874,220.85803 a 377,377 0 0 1 43.14842,251.10903"
       transform="translate(14.6854,-6.501709)"
       id="path3781"
       style="fill:none;stroke:#3f3f3f;stroke-width:46;stroke-miterlimit:4;stroke-opacity:1;stroke-dasharray:none" />
    <path
       d="M 391.8942,29.559128 A 377,377 0 0 1 596.13035,93.954539"
       transform="translate(14.6854,-6.501709)"
       id="path3783"
       style="fill:none;stroke:#3f3f3f;stroke-width:46;stroke-miterlimit:4;stroke-opacity:1;stroke-dasharray:none" />
    <path
       d="M 13.484963,468.72465 A 377,377 0 0 1 169.07631,97.681397"
       transform="translate(14.6854,-6.501709)"
       id="path3785"
       style="fill:none;stroke:#3f3f3f;stroke-width:46;stroke-miterlimit:4;stroke-opacity:1;stroke-dasharray:none" />
    <path
       d="M 562.30543,739.37295 A 377,377 0 0 1 179.98571,722.68051"
       transform="translate(14.6854,-6.501709)"
       id="path3787"
       style="fill:none;stroke:#3f3f3f;stroke-width:46;stroke-miterlimit:4;stroke-opacity:1;stroke-dasharray:none" />
  </g>
  <g
     id="layer3"
     style="display:inline">
    <path
       d="m 415,530 a 205,205 0 1 1 -410,0 205,205 0 1 1 410,0 z"
       transform="translate(66,-134)"
       id="path3792"
       style="fill:#008000;fill-opacity:0.49803922;stroke:#ffffff;stroke-width:5;stroke-miterlimit:4;stroke-dasharray:none" />
    <path
       d="m 415,530 a 205,205 0 1 1 -410,0 205,205 0 1 1 410,0 z"
       transform="translate(190,-10)"
       id="path3794"
       style="fill:#800033;fill-opacity:0.49803922;stroke:#ffffff;stroke-width:5;stroke-miterlimit:4;stroke-dasharray:none" />
    <path
       d="m 415,530 a 205,205 0 1 1 -410,0 205,205 0 1 1 410,0 z"
       transform="translate(314,-134)"
       id="path3796"
       style="fill:#0000ff;fill-opacity:0.49803922;stroke:#ffffff;stroke-width:5;stroke-miterlimit:4;stroke-dasharray:none" />
    <path
       d="m 415,530 a 205,205 0 1 1 -410,0 205,205 0 1 1 410,0 z"
       transform="translate(190,-258)"
       id="path3798"
       style="fill:#445500;fill-opacity:0.49803922;stroke:#ffffff;stroke-width:5;stroke-miterlimit:4;stroke-dasharray:none" />
    <path
       d="m 563.25,396 c -23.8325,31.1994 -56.5169,55.48791 -94.2619,69.02943 -13.535,37.69041 -37.7416,70.38209 -68.9528,94.18479 C 368.699,535.37532 344.356,502.77443 330.8584,465.00263 293.168,451.46769 260.5527,427.21126 236.75,396 c 23.8389,-31.33631 56.4915,-55.60329 94.2633,-69.10098 13.5578,-37.701 37.8921,-70.32943 69.0353,-94.14164 31.1994,23.8325 55.4879,56.51691 69.0294,94.2619 37.701,13.55785 70.3598,37.8375 94.172,68.98072 z"
       id="path3908"
       style="fill:#d1ba5a;fill-opacity:1;stroke:#ffffff;stroke-width:5;stroke-miterlimit:4" />
  </g>
  <g
     id="layer4"
     style="display:inline">
    <text
       x="400"
       y="133"
       id="text3826"
       xml:space="preserve"
       style="font-size:29px;font-style:normal;font-variant:normal;font-weight:normal;font-stretch:normal;text-align:center;line-height:125%;letter-spacing:0px;word-spacing:0px;text-anchor:middle;fill:#ffffff;fill-opacity:1;stroke:none;font-family:Liberation Sans;-inkscape-font-specification:Liberation Sans"><tspan
         x="400"
         y="133"
         id="tspan3828">Control</tspan><tspan
         x="400"
         y="169.25"
         id="tspan3830">Systems</tspan></text>
    <text
       x="151.69669"
       y="405.65686"
       id="text3832"
       xml:space="preserve"
       style="font-size:29px;font-style:normal;font-variant:normal;font-weight:normal;font-stretch:normal;text-align:center;line-height:125%;letter-spacing:0px;word-spacing:0px;text-anchor:middle;fill:#ffffff;fill-opacity:1;stroke:none;font-family:Liberation Sans;-inkscape-font-specification:Liberation Sans"><tspan
         x="151.69669"
         y="405.65686"
         id="tspan3836">Computers</tspan></text>
    <text
       x="657"
       y="388.07233"
       id="text3838"
       xml:space="preserve"
       style="font-size:29px;font-style:normal;font-variant:normal;font-weight:normal;font-stretch:normal;text-align:center;line-height:125%;letter-spacing:0px;word-spacing:0px;text-anchor:middle;fill:#ffffff;fill-opacity:1;stroke:none;font-family:Liberation Sans;-inkscape-font-specification:Liberation Sans"><tspan
         x="657"
         y="388.07233"
         id="tspan3842">Electronic</tspan><tspan
         x="657"
         y="424.32233"
         id="tspan3854">Systems</tspan></text>
    <text
       x="400"
       y="650"
       id="text3844"
       xml:space="preserve"
       style="font-size:29px;font-style:normal;font-variant:normal;font-weight:normal;font-stretch:normal;text-align:center;line-height:125%;letter-spacing:0px;word-spacing:0px;text-anchor:middle;fill:#ffffff;fill-opacity:1;stroke:none;font-family:Liberation Sans;-inkscape-font-specification:Liberation Sans"><tspan
         x="400"
         y="650"
         id="tspan3846">Mechanical</tspan><tspan
         x="400"
         y="686.25"
         id="tspan3848">Systems</tspan></text>
    <text
       x="278.60007"
       y="266.13437"
       id="text3858"
       xml:space="preserve"
       style="font-size:25px;font-style:oblique;font-variant:normal;font-weight:normal;font-stretch:normal;text-align:center;line-height:110.00000238%;letter-spacing:0px;word-spacing:0px;text-anchor:middle;fill:#ffffff;fill-opacity:1;stroke:none;font-family:Liberation Sans;-inkscape-font-specification:Liberation Sans Oblique"><tspan
         x="278.60007"
         y="266.13437"
         id="tspan3860">Digital Control</tspan><tspan
         x="278.60007"
         y="293.63437"
         id="tspan3862">Systems</tspan></text>
    <text
       x="272.58966"
       y="519.98572"
       id="text3864"
       xml:space="preserve"
       style="font-size:25px;font-style:oblique;font-variant:normal;font-weight:normal;font-stretch:normal;text-align:center;line-height:110.00000238%;letter-spacing:0px;word-spacing:0px;text-anchor:middle;fill:#ffffff;fill-opacity:1;stroke:none;font-family:Liberation Sans;-inkscape-font-specification:Liberation Sans Oblique"><tspan
         x="272.58966"
         y="519.98572"
         id="tspan3868">Mechanical</tspan><tspan
         x="272.58966"
         y="547.48572"
         id="tspan3872">CAD</tspan></text>
    <text
       x="529.60004"
       y="266.13437"
       id="text3874"
       xml:space="preserve"
       style="font-size:25px;font-style:oblique;font-variant:normal;font-weight:normal;font-stretch:normal;text-align:center;line-height:110.00000238%;letter-spacing:0px;word-spacing:0px;text-anchor:middle;fill:#ffffff;fill-opacity:1;stroke:none;font-family:Liberation Sans;-inkscape-font-specification:Liberation Sans Oblique"><tspan
         x="529.60004"
         y="266.13437"
         id="tspan3878">Control</tspan><tspan
         x="529.60004"
         y="293.63437"
         id="tspan3888">Electronics</tspan></text>
    <text
       x="523.58966"
       y="519.98572"
       id="text3880"
       xml:space="preserve"
       style="font-size:25px;font-style:oblique;font-variant:normal;font-weight:normal;font-stretch:normal;text-align:center;line-height:110.00000238%;letter-spacing:0px;word-spacing:0px;text-anchor:middle;fill:#ffffff;fill-opacity:1;stroke:none;font-family:Liberation Sans;-inkscape-font-specification:Liberation Sans Oblique"><tspan
         x="523.58966"
         y="519.98572"
         id="tspan3884">Electro-</tspan><tspan
         x="523.58966"
         y="547.48572"
         id="tspan3892">mechanics</tspan></text>
    <text
       x="402.13348"
       y="408.37006"
       id="text3894"
       xml:space="preserve"
       style="font-size:32px;font-style:oblique;font-variant:normal;font-weight:bold;font-stretch:normal;text-align:center;line-height:110.00000238%;letter-spacing:0px;word-spacing:0px;text-anchor:middle;fill:#2e2e2f;fill-opacity:1;stroke:#aaccff;stroke-width:0.5;stroke-miterlimit:4;stroke-dasharray:none;font-family:Liberation Sans;-inkscape-font-specification:Liberation Sans Bold Oblique"><tspan
         x="402.13348"
         y="408.37006"
         id="tspan3896">MECHATRONICS</tspan></text>
  </g>
  <g
     id="layer5">
    <path
       d="m 388.6562,10.65625 -16.75,0.84375 1.0626,21.28125 17.375,-0.875 -0.1876,-3.4375 -12.9062,0.65625 -0.2812,-5.625 11.375,-0.5625 -0.1876,-3.4375 -11.375,0.5625 -0.25,-5.34375 12.2813,-0.625 -0.1563,-3.4375 z m 36.125,0.84375 -9.25,20.71875 4.4688,0.3125 2.25,-5.28125 8.125,0.5625 1.5,5.5625 4.4062,0.3125 -6.25,-21.84375 -5.25,-0.34375 z m -56.4062,0.21875 -4.5938,0.46875 -2.875,14.09375 c -0.09,0.486607 -0.1962,0.977679 -0.2812,1.46875 -0.0846,0.491085 -0.1588,0.920499 -0.2188,1.3125 -0.0621,0.463322 -0.1002,0.921648 -0.1562,1.34375 -0.1554,-0.409636 -0.3303,-0.832521 -0.5,-1.28125 -0.1521,-0.379558 -0.3193,-0.792301 -0.5,-1.25 -0.1808,-0.457668 -0.3738,-0.907203 -0.5625,-1.34375 L 352.875,13.375 l -4.625,0.5 10.0938,20.34375 4.5,-0.46875 5.5312,-22.03125 z m 73.5312,1.15625 -2.7187,21.15625 17.25,2.21875 0.4375,-3.4375 -12.8125,-1.65625 0.6875,-5.5625 11.3125,1.46875 0.4375,-3.4375 -11.2812,-1.4375 0.6562,-5.34375 12.2188,1.59375 0.4374,-3.4375 -16.625,-2.125 z m -96.75,1.53125 -4.4062,0.65625 3.0938,21.09375 4.4374,-0.65625 -3.125,-21.09375 z m 82.0313,0.5625 c 0.009,0.02085 0.0205,0.117405 0.0625,0.3125 0.0421,0.195135 0.0912,0.447101 0.1562,0.75 0.065,0.302933 0.1591,0.634598 0.25,1 0.0909,0.365432 0.1853,0.733031 0.2813,1.09375 l 1.6563,6.25 -6.0938,-0.4375 2.5,-5.96875 c 0.1453,-0.343926 0.2969,-0.681905 0.4375,-1.03125 0.1406,-0.349311 0.2691,-0.651481 0.375,-0.9375 0.1058,-0.285982 0.186,-0.530998 0.25,-0.71875 0.0639,-0.187714 0.112,-0.28308 0.125,-0.3125 z m -89.6563,0.5 -17.9374,3.3125 0.625,3.40625 6.7812,-1.25 3.2812,17.5625 4.375,-0.8125 -3.25,-17.5625 6.7813,-1.28125 -0.6563,-3.375 z m 126.125,0.34375 -3.9374,20.9375 4.375,0.84375 1.5,-7.96875 5.1562,0.96875 3.3438,8.875 4.9374,0.9375 -4,-9.875 c 0.6944,-0.03305 1.3702,-0.171002 2,-0.40625 0.6299,-0.235231 1.1804,-0.572093 1.6876,-1 0.5071,-0.427893 0.9566,-0.925827 1.3124,-1.53125 0.356,-0.605394 0.6019,-1.310408 0.75,-2.09375 0.1846,-0.961795 0.1769,-1.858115 0,-2.6875 -0.177,-0.829362 -0.5415,-1.554621 -1.0937,-2.21875 -0.5523,-0.664094 -1.2661,-1.241588 -2.1875,-1.71875 -0.9214,-0.477126 -2.0662,-0.846301 -3.375,-1.09375 L 463.6562,15.8125 z m 3.75,4.21875 5.625,1.0625 c 1.2395,0.234328 2.1432,0.65896 2.7188,1.28125 0.5738,0.622317 0.7867,1.447463 0.5938,2.46875 -0.0881,0.466052 -0.247,0.891422 -0.4688,1.25 -0.2219,0.358599 -0.5191,0.649591 -0.875,0.875 -0.3558,0.225431 -0.7812,0.37286 -1.2812,0.4375 -0.5,0.06466 -1.0957,0.02998 -1.75,-0.09375 l -5.7188,-1.09375 1.1562,-6.1875 z m -157.625,1.1875 c -1.1155,-0.0223 -2.2988,0.09372 -3.5624,0.40625 -1.6849,0.41675 -3.1057,1.059303 -4.2813,1.875 -1.1756,0.815742 -2.09,1.771082 -2.75,2.90625 -0.66,1.135207 -1.0543,2.428243 -1.1875,3.84375 -0.1333,1.41554 -0.0248,2.914925 0.375,4.53125 0.3852,1.557568 0.9581,2.951414 1.7188,4.15625 0.7606,1.204853 1.7044,2.166778 2.8124,2.90625 1.108,0.739481 2.3825,1.224644 3.8126,1.4375 1.4299,0.212857 3.0161,0.08509 4.75,-0.34375 1.6358,-0.404608 3.0467,-1.013329 4.2187,-1.84375 1.172,-0.830409 2.0814,-1.80543 2.75,-2.96875 0.6687,-1.163305 1.0657,-2.496314 1.2187,-3.9375 0.153,-1.441161 0.0561,-2.94615 -0.3437,-4.5625 -0.3974,-1.60652 -0.9997,-3.003387 -1.7813,-4.1875 -0.7813,-1.184072 -1.7295,-2.142169 -2.8437,-2.84375 -1.1143,-0.701532 -2.3909,-1.133903 -3.8125,-1.3125 -0.3554,-0.04464 -0.7219,-0.05507 -1.0938,-0.0625 z m 183.375,0.84375 c -0.3716,0.0035 -0.7383,0.02194 -1.0937,0.0625 -1.4217,0.162283 -2.6939,0.593568 -3.8125,1.28125 -1.1187,0.687716 -2.0565,1.597343 -2.8438,2.78125 -0.7872,1.183927 -1.3997,2.605698 -1.8124,4.21875 -0.3978,1.554427 -0.5375,3.047432 -0.4376,4.46875 0.0998,1.421326 0.4676,2.699197 1.0938,3.875 0.6262,1.175805 1.4972,2.198263 2.6562,3.0625 1.1591,0.864235 2.6134,1.526 4.3438,1.96875 1.6326,0.417726 3.1682,0.520673 4.5938,0.34375 1.4254,-0.176933 2.7042,-0.604116 3.8437,-1.3125 1.1396,-0.708389 2.1208,-1.646531 2.9375,-2.84375 0.8167,-1.197229 1.4309,-2.605676 1.8438,-4.21875 0.4103,-1.60329 0.5342,-3.118327 0.4062,-4.53125 -0.1281,-1.4129 -0.5067,-2.698397 -1.1562,-3.84375 -0.6498,-1.145324 -1.5511,-2.138714 -2.7188,-2.96875 -1.1678,-0.830006 -2.5998,-1.444738 -4.2812,-1.875 -1.2613,-0.322667 -2.4476,-0.479347 -3.5626,-0.46875 z M 308.5,24.84375 c 0.4556,-0.02302 0.896,-0.0138 1.3125,0.0625 0.833,0.152636 1.5544,0.467814 2.2187,0.96875 0.6645,0.500976 1.2423,1.187486 1.7188,2 0.4764,0.812541 0.8561,1.756417 1.125,2.84375 0.2617,1.057978 0.388,2.045533 0.375,3 -0.0134,0.954491 -0.1977,1.819971 -0.5312,2.59375 -0.3336,0.773791 -0.8269,1.44368 -1.5,2 -0.6733,0.556331 -1.5359,0.957095 -2.5938,1.21875 -0.9894,0.244709 -1.9061,0.300898 -2.75,0.125 -0.8439,-0.17589 -1.612,-0.541946 -2.2812,-1.0625 -0.6694,-0.520541 -1.2375,-1.199114 -1.7188,-2.03125 -0.4816,-0.83202 -0.8585,-1.766189 -1.125,-2.84375 -0.2686,-1.08734 -0.3818,-2.122752 -0.3438,-3.0625 0.0378,-0.939718 0.2394,-1.778304 0.5938,-2.53125 0.3543,-0.75291 0.8555,-1.3805 1.5312,-1.90625 0.6756,-0.525712 1.5223,-0.906678 2.5313,-1.15625 0.4947,-0.122342 0.9819,-0.195728 1.4375,-0.21875 z m 185.2188,0.84375 c 0.6635,-0.03236 1.3697,0.05678 2.125,0.25 0.9873,0.252656 1.8071,0.627628 2.4687,1.15625 0.6616,0.528648 1.1829,1.181763 1.5313,1.9375 0.3483,0.75576 0.5274,1.590002 0.5624,2.53125 0.0352,0.941265 -0.066,1.946092 -0.3437,3.03125 -0.2701,1.055836 -0.6615,2.009264 -1.125,2.84375 -0.4636,0.834493 -1.0274,1.507455 -1.6875,2.03125 -0.66,0.523799 -1.3937,0.891 -2.25,1.0625 -0.8564,0.171502 -1.8192,0.113903 -2.875,-0.15625 -0.9874,-0.25264 -1.8085,-0.664423 -2.4688,-1.21875 -0.6602,-0.554324 -1.1567,-1.224694 -1.5,-2 -0.3431,-0.775296 -0.5325,-1.632936 -0.5624,-2.59375 -0.0301,-0.960801 0.0685,-1.987104 0.3437,-3.0625 0.2776,-1.085149 0.6781,-2.033803 1.1563,-2.84375 0.478,-0.809923 1.0503,-1.441881 1.7187,-1.9375 0.6685,-0.495591 1.4061,-0.825314 2.25,-0.96875 0.211,-0.03585 0.4351,-0.05171 0.6563,-0.0625 z m -202.5313,0.15625 -5.6563,1.8125 0.0938,12.59375 c -6e-4,0.159558 -10e-4,0.330192 0,0.53125 10e-4,0.201073 0.0213,0.404743 0.0312,0.625 0.007,0.220288 -0.01,0.457642 0,0.6875 0.01,0.229895 0.0213,0.46724 0.0313,0.6875 0.023,0.501297 0.0677,1.019704 0.0937,1.5625 -0.298,-0.465994 -0.5772,-0.909994 -0.8437,-1.34375 -0.2353,-0.369564 -0.5007,-0.759382 -0.75,-1.15625 -0.2494,-0.396847 -0.4644,-0.733009 -0.6563,-1 l -7.2812,-10.1875 -5.6875,1.8125 6.5313,20.3125 3.7812,-1.21875 -3.9688,-12.28125 c -0.1204,-0.374687 -0.2859,-0.840706 -0.4687,-1.34375 -0.1828,-0.503016 -0.3327,-0.982481 -0.5,-1.4375 -0.2016,-0.528756 -0.4172,-1.045737 -0.625,-1.59375 0.4552,0.691132 0.9012,1.348343 1.3125,1.96875 0.179,0.260473 0.3461,0.532839 0.5312,0.8125 0.1852,0.279686 0.3571,0.550507 0.5313,0.8125 0.1742,0.262013 0.3476,0.492123 0.5,0.71875 0.1523,0.226668 0.2901,0.42973 0.4063,0.59375 L 285.875,49.96875 288.9062,49 288.9375,36.46875 c 0,-0.201043 0,-0.412989 0,-0.6875 -0.004,-0.274473 -0.0203,-0.591781 -0.0313,-0.90625 -0.011,-0.314442 -0.0192,-0.633523 -0.0312,-0.96875 -0.012,-0.335202 -0.0152,-0.65581 -0.0312,-0.96875 -0.037,-0.740761 -0.0831,-1.519915 -0.125,-2.34375 0.135,0.486574 0.2715,0.981541 0.4062,1.5 0.1197,0.438516 0.254,0.914089 0.4062,1.4375 0.1523,0.52346 0.3111,1.041374 0.4688,1.53125 l 3.9375,12.3125 3.7813,-1.21875 -6.5313,-20.3125 z m 223.5,2.5 c -0.48,0.02949 -0.9125,0.105982 -1.3437,0.21875 -0.8626,0.225571 -1.6144,0.628465 -2.25,1.21875 -0.6357,0.590313 -1.1124,1.397816 -1.4376,2.40625 -0.2383,0.739559 -0.3547,1.423434 -0.3437,2.03125 0.0108,0.607839 0.1127,1.172508 0.3125,1.6875 0.1997,0.515014 0.4821,0.982214 0.8438,1.40625 0.3615,0.424054 0.7603,0.817081 1.2187,1.1875 0.4584,0.370439 0.9702,0.701426 1.5,1.03125 0.5298,0.329838 1.0609,0.679781 1.5937,1 0.674,0.376278 1.2931,0.726454 1.9063,1.09375 0.6132,0.367306 1.159,0.761655 1.5937,1.15625 0.4348,0.394602 0.7447,0.826815 0.9376,1.28125 0.1929,0.454442 0.1797,0.943031 0,1.5 -0.3005,0.931633 -0.8769,1.496638 -1.7813,1.6875 -0.9045,0.190864 -2.0905,0.0582 -3.5313,-0.40625 -0.826,-0.266263 -1.4981,-0.570068 -2.0312,-0.90625 -0.5331,-0.336182 -0.9493,-0.69463 -1.25,-1.09375 -0.3008,-0.399115 -0.4935,-0.835464 -0.5938,-1.28125 -0.1048,-0.445781 -0.1549,-0.917686 -0.125,-1.40625 l -4.3124,-0.625 c -0.0893,0.967841 -0.013,1.875369 0.2187,2.71875 0.2318,0.843389 0.6357,1.605033 1.2187,2.3125 0.583,0.707466 1.331,1.334857 2.2813,1.90625 0.9502,0.571388 2.1242,1.097786 3.4687,1.53125 1.5176,0.489176 2.8684,0.75093 4.0626,0.8125 1.1941,0.06156 2.2144,-0.06472 3.0937,-0.375 0.8793,-0.310292 1.6083,-0.791916 2.1875,-1.4375 0.5792,-0.645588 1.0149,-1.421863 1.3125,-2.34375 0.2538,-0.787564 0.3647,-1.513414 0.3437,-2.15625 -0.0208,-0.642829 -0.1182,-1.216099 -0.3437,-1.75 -0.2255,-0.53389 -0.5406,-1.022713 -0.9375,-1.46875 -0.397,-0.446029 -0.8421,-0.86563 -1.3438,-1.25 -0.5017,-0.384352 -1.0487,-0.74363 -1.625,-1.09375 -0.5762,-0.350106 -1.1594,-0.692437 -1.75,-1.03125 -0.6707,-0.385867 -1.2914,-0.751367 -1.8437,-1.09375 -0.5523,-0.342364 -1.0124,-0.707066 -1.375,-1.0625 -0.3625,-0.355411 -0.6136,-0.725835 -0.75,-1.125 -0.1363,-0.399136 -0.098,-0.844169 0.0625,-1.34375 0.1053,-0.326539 0.2495,-0.622299 0.4688,-0.875 0.2192,-0.252671 0.5108,-0.436015 0.875,-0.5625 0.3641,-0.126457 0.8072,-0.18602 1.3437,-0.15625 0.5364,0.02981 1.1884,0.164725 1.9375,0.40625 1.2102,0.39012 2.0566,0.911722 2.5625,1.5625 0.5059,0.650801 0.7262,1.464141 0.6563,2.40625 l 4.3124,0.75 c 0.1024,-0.910515 0.0701,-1.742096 -0.0937,-2.5 -0.1639,-0.757885 -0.4976,-1.434003 -1,-2.0625 -0.5025,-0.628471 -1.183,-1.207276 -2.0625,-1.71875 -0.8795,-0.511444 -1.9871,-0.978989 -3.3125,-1.40625 -1.1717,-0.377702 -2.2864,-0.611132 -3.3437,-0.71875 -0.5287,-0.05379 -1.0513,-0.09199 -1.5313,-0.0625 z m 17.6875,5.40625 -7.6875,19.875 4.1563,1.625 2.7187,-7 4.9375,1.90625 c 1.252,0.483438 2.3845,0.72865 3.4375,0.71875 1.0531,-0.0098 2.0143,-0.210849 2.8437,-0.59375 0.8293,-0.382893 1.5308,-0.940398 2.125,-1.625 0.5943,-0.684597 1.0755,-1.455847 1.4063,-2.3125 0.3599,-0.931952 0.5313,-1.832316 0.5313,-2.71875 10e-4,-0.886417 -0.1964,-1.708312 -0.5938,-2.5 -0.3974,-0.791666 -0.9987,-1.521684 -1.8125,-2.1875 -0.8138,-0.665785 -1.8542,-1.259276 -3.125,-1.75 L 532.375,33.75 z m -271.9062,3.0625 c -1.4326,0.0169 -2.9815,0.357526 -4.5938,1 -1.6124,0.642524 -2.9465,1.437925 -4,2.40625 -1.0534,0.968373 -1.8134,2.066712 -2.3125,3.28125 -0.4991,1.214573 -0.7172,2.548284 -0.6563,3.96875 0.0611,1.420471 0.3836,2.890754 1,4.4375 0.5939,1.490525 1.3636,2.785077 2.2813,3.875 0.9177,1.089933 1.9578,1.918467 3.1563,2.5 1.1984,0.581544 2.523,0.8903 3.9687,0.90625 1.4457,0.01596 2.9969,-0.30757 4.6563,-0.96875 1.5655,-0.623819 2.8896,-1.423831 3.9374,-2.40625 1.0479,-0.982403 1.8088,-2.100146 2.3126,-3.34375 0.5038,-1.243588 0.7325,-2.58267 0.6874,-4.03125 -0.0452,-1.448485 -0.3523,-2.953223 -0.9687,-4.5 -0.6126,-1.537364 -1.4082,-2.839699 -2.3437,-3.90625 -0.9357,-1.066504 -1.9881,-1.8631 -3.1876,-2.40625 -1.1994,-0.543099 -2.5048,-0.82934 -3.9374,-0.8125 z m 274.8124,1.78125 4.3126,1.65625 c 1.2331,0.47618 2.0574,1.105049 2.4687,1.875 0.4117,0.769972 0.3962,1.661416 0,2.6875 -0.189,0.489522 -0.4195,0.895034 -0.7187,1.25 -0.2993,0.354983 -0.6533,0.635179 -1.0626,0.8125 -0.4091,0.177338 -0.866,0.26263 -1.375,0.25 -0.509,-0.01261 -1.0661,-0.135091 -1.6874,-0.375 l -4.4376,-1.71875 2.5,-6.4375 z M 259.2188,40.5625 c 0.2177,-0.01652 0.4447,-0.0094 0.6562,0 0.846,0.03767 1.6173,0.250559 2.3438,0.65625 0.7265,0.405732 1.386,0.978759 1.9687,1.71875 0.5828,0.740028 1.0854,1.646965 1.5,2.6875 0.4034,1.012441 0.6644,1.990117 0.7813,2.9375 0.1168,0.947412 0.0687,1.81298 -0.1563,2.625 -0.225,0.812043 -0.6275,1.544607 -1.2187,2.1875 -0.5911,0.642911 -1.3939,1.159075 -2.4063,1.5625 -0.9468,0.377283 -1.8588,0.55922 -2.7187,0.5 -0.8602,-0.05921 -1.6411,-0.325534 -2.375,-0.75 -0.734,-0.424452 -1.4098,-0.991233 -2,-1.75 -0.5903,-0.758746 -1.0891,-1.656306 -1.5,-2.6875 -0.4147,-1.040534 -0.6591,-2.032613 -0.75,-2.96875 -0.0906,-0.936104 -0.0297,-1.799534 0.2187,-2.59375 0.2484,-0.794182 0.6836,-1.512069 1.2813,-2.125 0.5977,-0.612893 1.3781,-1.115221 2.3437,-1.5 0.7101,-0.282946 1.3779,-0.45043 2.0313,-0.5 z m -15.8438,2.71875 -16.5312,7.75 1.4687,3.125 6.25,-2.9375 7.5625,16.1875 4.0625,-1.875 -7.5937,-16.1875 6.25,-2.9375 -1.4688,-3.125 z m 315.3125,1.1875 -15.9063,16.1875 4.0626,1.84375 3.9687,-4.1875 7.4063,3.375 -0.5313,5.75 4.0313,1.84375 1.7812,-22.625 -4.8125,-2.1875 z m 1.0625,4.0625 c 10e-4,0.02257 -0.0335,0.146279 -0.0625,0.34375 -0.0294,0.197499 -0.0487,0.44354 -0.0937,0.75 -0.0453,0.306479 -0.1133,0.657139 -0.1563,1.03125 -0.0425,0.374127 -0.0577,0.753392 -0.0937,1.125 l -0.625,6.4375 -5.5938,-2.53125 4.4688,-4.71875 c 0.2566,-0.271231 0.4957,-0.534566 0.75,-0.8125 0.254,-0.277914 0.4881,-0.550462 0.6874,-0.78125 0.1993,-0.230767 0.3747,-0.408914 0.5,-0.5625 0.1258,-0.153558 0.1968,-0.25788 0.2188,-0.28125 z m -336,4.03125 -3.9375,2.125 L 225.9062,66 c 0.4359,0.808283 0.7095,1.548844 0.8126,2.25 0.1029,0.70118 0.0554,1.347237 -0.125,1.9375 -0.1804,0.590282 -0.4671,1.121918 -0.9063,1.59375 -0.4392,0.471856 -0.9855,0.873921 -1.625,1.21875 -0.6307,0.340057 -1.2665,0.582925 -1.875,0.6875 -0.6086,0.104594 -1.187,0.0785 -1.75,-0.09375 -0.5629,-0.172238 -1.0895,-0.50121 -1.5937,-0.96875 -0.5045,-0.467523 -0.9801,-1.115728 -1.4063,-1.90625 l -6.1563,-11.40625 -3.9374,2.09375 6.3437,11.75 c 0.6896,1.279038 1.4817,2.289389 2.375,3 0.8934,0.710619 1.8504,1.165101 2.875,1.375 1.0246,0.209915 2.0909,0.184553 3.2187,-0.0625 1.128,-0.247044 2.2963,-0.680292 3.4688,-1.3125 1.2258,-0.660935 2.2595,-1.430513 3.125,-2.28125 0.8654,-0.850722 1.4931,-1.79287 1.9062,-2.8125 0.4137,-1.019611 0.59,-2.114626 0.5,-3.28125 -0.0903,-1.166583 -0.493,-2.368322 -1.1874,-3.65625 L 223.75,52.5625 z m 353.7812,1.90625 c -1.0203,-0.01716 -1.9681,0.117953 -2.875,0.4375 -1.2091,0.426093 -2.3041,1.140983 -3.3124,2.125 -1.0085,0.984044 -1.9064,2.217096 -2.6876,3.6875 -0.7527,1.416954 -1.2756,2.823389 -1.5312,4.21875 -0.2554,1.395371 -0.2244,2.716861 0.0938,4 0.3181,1.283142 0.9389,2.504907 1.875,3.625 0.9362,1.120086 2.244,2.102351 3.875,2.96875 1.2475,0.662806 2.4142,1.098686 3.5,1.28125 1.0856,0.182551 2.0977,0.175216 3.0312,0.03125 0.9335,-0.143978 1.7713,-0.398676 2.5625,-0.8125 0.7911,-0.413833 1.5202,-0.906989 2.1563,-1.4375 l -2.75,-3.125 c -0.4013,0.346714 -0.8537,0.680658 -1.3438,0.96875 -0.4901,0.288093 -1.0174,0.497036 -1.5938,0.625 -0.5765,0.12796 -1.1933,0.13951 -1.8437,0.0625 -0.6505,-0.07701 -1.354,-0.294551 -2.0937,-0.6875 -0.9802,-0.520785 -1.7256,-1.142372 -2.25,-1.84375 -0.5245,-0.70138 -0.8357,-1.456361 -0.9688,-2.28125 -0.1331,-0.824881 -0.0988,-1.698323 0.125,-2.625 0.2238,-0.926667 0.6042,-1.894719 1.125,-2.875 0.5255,-0.989181 1.0856,-1.813658 1.7188,-2.5 0.6331,-0.68632 1.3182,-1.19525 2.0624,-1.53125 0.7441,-0.335982 1.5568,-0.49459 2.4063,-0.4375 0.8495,0.05711 1.734,0.33718 2.6875,0.84375 0.6773,0.359823 1.2451,0.792171 1.6875,1.25 0.4424,0.457849 0.7861,0.910407 1.0313,1.40625 0.2449,0.49586 0.4067,1.024127 0.4687,1.53125 0.0615,0.507134 0.0567,0.970191 -0.0313,1.4375 l 3.9688,0.90625 c 0.157,-0.898957 0.1963,-1.78471 0.0938,-2.65625 -0.1026,-0.871526 -0.3884,-1.705937 -0.8126,-2.53125 -0.4243,-0.825296 -1.0274,-1.626544 -1.8124,-2.375 -0.7852,-0.748433 -1.7702,-1.440392 -3,-2.09375 -1.5863,-0.842707 -3.0891,-1.358698 -4.5,-1.53125 -0.3528,-0.04313 -0.7224,-0.05678 -1.0626,-0.0625 z M 595.125,63 l -11.0938,18.21875 14.8438,9.0625 1.7812,-2.96875 -11.0312,-6.71875 2.9375,-4.78125 9.7187,5.90625 1.7813,-2.9375 -9.7187,-5.90625 2.7812,-4.59375 10.5312,6.40625 L 609.4375,71.75 595.125,63 z M 197.28125,67.46875 192.8125,70.25 197.46875,92.5 201.25,90.125 199.96875,84.5 l 6.90625,-4.28125 4.5,3.625 3.75,-2.3125 -17.84375,-14.0625 z m -0.5,4.1875 c 0.0192,0.01185 0.10175,0.08512 0.25,0.21875 0.14825,0.133676 0.33266,0.323544 0.5625,0.53125 0.22983,0.207747 0.49376,0.413059 0.78125,0.65625 0.28748,0.243232 0.58589,0.482505 0.875,0.71875 l 5.0312,4.09375 -5.2187,3.25 -1.4375,-6.3125 c -0.0832,-0.363961 -0.19095,-0.728145 -0.28125,-1.09375 -0.0902,-0.365571 -0.1686,-0.706094 -0.25,-1 C 197.01215,72.424941 196.9333,72.189502 196.875,72 c -0.0583,-0.189464 -0.0857,-0.31276 -0.0937,-0.34375 z M 634.1562,88.0625 620.875,104.78125 624,107.25 632.0312,97.125 c 0.2447,-0.308214 0.5271,-0.69358 0.8438,-1.125 0.3168,-0.431407 0.6209,-0.826868 0.9062,-1.21875 0.3278,-0.461384 0.6597,-0.92904 1,-1.40625 -0.3218,0.762393 -0.6188,1.469646 -0.9062,2.15625 -0.1172,0.293579 -0.2454,0.59689 -0.375,0.90625 -0.1297,0.30938 -0.254,0.615828 -0.375,0.90625 -0.1211,0.290434 -0.2399,0.559967 -0.3438,0.8125 -0.1039,0.252544 -0.178,0.46842 -0.25,0.65625 l -4.4062,11.71875 2.5,1.96875 10.4062,-6.9375 c 0.1667,-0.11252 0.3674,-0.251 0.5938,-0.40625 0.2263,-0.15531 0.4633,-0.31625 0.7188,-0.5 0.2553,-0.18376 0.5092,-0.36607 0.7812,-0.5625 0.2719,-0.19642 0.5298,-0.40685 0.7812,-0.59375 0.5957,-0.4419 1.2445,-0.88245 1.9063,-1.375 -0.3296,0.3826 -0.6751,0.75619 -1.0313,1.15625 -0.2982,0.3431 -0.618,0.73889 -0.9687,1.15625 -0.3507,0.41735 -0.68,0.81568 -1,1.21875 l -8.0625,10.125 3.125,2.46875 13.25,-16.71875 -4.6562,-3.6875 -10.4063,7.0625 c -0.1337,0.0871 -0.2709,0.19998 -0.4375,0.3125 -0.1666,0.11254 -0.3521,0.2154 -0.5312,0.34375 -0.1794,0.12828 -0.3459,0.26999 -0.5313,0.40625 -0.1855,0.1362 -0.3834,0.2779 -0.5625,0.40625 -0.404,0.29777 -0.8131,0.61434 -1.25,0.9375 0.2219,-0.50672 0.4436,-1.00621 0.6562,-1.46875 0.1767,-0.40095 0.3398,-0.8222 0.5313,-1.25 0.1915,-0.4278 0.3532,-0.78601 0.4687,-1.09375 l 4.4376,-11.71875 -4.6876,-3.71875 z M 166.75,90.34375 c -0.22376,0.0057 -0.42765,0.03737 -0.65625,0.0625 -0.91441,0.100579 -1.89081,0.375443 -2.875,0.8125 -0.9842,0.437103 -1.97433,1.047862 -3.03125,1.875 -1.45426,1.138153 -2.58103,2.349748 -3.34375,3.59375 -0.76271,1.244051 -1.21401,2.512862 -1.34375,3.8125 -0.12973,1.29967 0.0538,2.60694 0.53125,3.9375 0.47751,1.33059 1.22383,2.65754 2.25,3.96875 0.98887,1.26355 2.05558,2.28698 3.21875,3.09375 1.16332,0.80646 2.421,1.32877 3.71875,1.5625 1.29775,0.23374 2.65072,0.15651 4.0625,-0.25 1.41176,-0.40649 2.85769,-1.18073 4.34375,-2.34375 0.89798,-0.70278 1.66948,-1.46602 2.34375,-2.25 0.67426,-0.78397 1.2516,-1.58013 1.71875,-2.375 0.46712,-0.79484 0.8301,-1.56719 1.09375,-2.34375 0.26361,-0.77653 0.4233,-1.49957 0.5,-2.1875 l -4.8125,-6.1875 -7.3125,5.71875 2.03125,2.625 4.09375,-3.21875 1.8125,2.3125 c -0.0636,0.3445 -0.18688,0.73353 -0.375,1.15625 -0.18815,0.42275 -0.42006,0.86732 -0.71875,1.3125 -0.2987,0.44521 -0.65584,0.89736 -1.0625,1.34375 -0.40668,0.44642 -0.86641,0.85198 -1.375,1.25 -0.86621,0.67792 -1.7279,1.109 -2.59375,1.3125 -0.86586,0.20321 -1.73482,0.22923 -2.5625,0.0312 -0.82768,-0.19797 -1.63143,-0.58372 -2.40625,-1.15625 -0.77481,-0.57251 -1.50337,-1.31334 -2.1875,-2.1875 -0.69033,-0.88209 -1.20454,-1.75826 -1.5625,-2.625 -0.35795,-0.8667 -0.5152,-1.69923 -0.5,-2.53125 0.0152,-0.831974 0.23508,-1.634529 0.65625,-2.40625 0.42119,-0.771687 1.06335,-1.50336 1.9375,-2.1875 0.59601,-0.466428 1.17627,-0.806463 1.75,-1.03125 0.57372,-0.224733 1.11915,-0.36391 1.65625,-0.40625 0.5371,-0.0423 1.04717,-0.0023 1.53125,0.125 0.48406,0.12736 0.92707,0.32479 1.34375,0.5625 l 2.5,-3.53125 c -0.76884,-0.474556 -1.56924,-0.821329 -2.40625,-1.03125 -0.62776,-0.157399 -1.29746,-0.23594 -1.96875,-0.21875 z m -18.5625,12.8125 -2.96875,2.625 8.25,9.28125 c 0.33528,0.37706 0.65256,0.74102 1,1.09375 0.34743,0.35274 0.67705,0.639 0.96875,0.90625 0.33862,0.32007 0.68064,0.62309 1,0.90625 l -18.0625,-6.09375 -3.8125,3.375 14.1875,15.9375 2.9375,-2.625 -8.34375,-9.40625 c -0.26822,-0.30161 -0.56109,-0.5912 -0.875,-0.90625 -0.3139,-0.31501 -0.62127,-0.61526 -0.90625,-0.875 -0.32522,-0.30495 -0.63598,-0.60797 -0.96875,-0.90625 l 17.84375,6.09375 3.90625,-3.46875 -14.15625,-15.9375 z M 655.3125,105.1875 641,121 l 12.9062,11.6875 2.3126,-2.5625 -9.5938,-8.6875 3.7812,-4.15625 8.4376,7.625 2.3124,-2.5625 -8.4374,-7.625 3.5937,-3.96875 9.125,8.25 2.3125,-2.5625 -12.4375,-11.25 z m -524.34375,13.59375 -3.1875,3.09375 14.8125,15.34375 3.21875,-3.09375 -14.84375,-15.34375 z m 540.53125,1.25 -15.1875,14.9375 6.0313,6.15625 c 1.0259,1.04324 2.1559,1.86003 3.375,2.4375 1.2189,0.57745 2.4827,0.88115 3.7812,0.90625 1.2985,0.0251 2.602,-0.24922 3.9375,-0.8125 1.3355,-0.5633 2.6399,-1.47339 3.9063,-2.71875 1.295,-1.27365 2.2279,-2.58361 2.7812,-3.90625 0.5533,-1.32264 0.7765,-2.62377 0.6875,-3.9375 -0.0889,-1.31372 -0.4506,-2.59921 -1.125,-3.875 -0.6744,-1.27579 -1.5896,-2.50756 -2.75,-3.6875 l -5.4375,-5.5 z m 0.6875,5.59375 2.2187,2.25 c 0.7147,0.72667 1.2597,1.48945 1.6563,2.28125 0.3966,0.79182 0.607,1.60604 0.625,2.4375 0.0181,0.83147 -0.1664,1.66755 -0.5625,2.53125 -0.3961,0.86369 -1.0526,1.72343 -1.9375,2.59375 -0.8634,0.84909 -1.7161,1.48898 -2.5937,1.90625 -0.8776,0.41725 -1.7274,0.6516 -2.5626,0.6875 -0.8351,0.0358 -1.6489,-0.11365 -2.4062,-0.4375 -0.7572,-0.32386 -1.4327,-0.79717 -2.0625,-1.4375 l -2.6563,-2.71875 10.2813,-10.09375 z m -547.625,1.84375 c -0.38455,-0.001 -0.79521,0.0357 -1.1875,0.125 -0.78459,0.17859 -1.59403,0.55612 -2.4375,1.125 -0.84345,0.56892 -1.72559,1.36802 -2.6875,2.375 -0.85036,0.89025 -1.56759,1.78258 -2.125,2.6875 -0.55739,0.90496 -0.92106,1.78155 -1.09375,2.65625 -0.17266,0.87473 -0.12951,1.73327 0.125,2.5625 0.25454,0.82925 0.76507,1.61189 1.53125,2.34375 0.56188,0.53673 1.10441,0.93251 1.65625,1.1875 0.55186,0.25502 1.10566,0.42425 1.65625,0.46875 0.5506,0.0445 1.11704,-0.0154 1.65625,-0.15625 0.53922,-0.14081 1.06063,-0.34243 1.59375,-0.59375 0.53312,-0.2513 1.06608,-0.54172 1.59375,-0.875 0.52768,-0.33326 1.04213,-0.65975 1.5625,-1 0.63223,-0.44271 1.24605,-0.85802 1.84375,-1.25 0.5977,-0.39196 1.1742,-0.71803 1.71875,-0.9375 0.54455,-0.21949 1.06945,-0.30565 1.5625,-0.28125 0.49302,0.0244 0.95176,0.252 1.375,0.65625 0.70783,0.67613 0.94086,1.44651 0.71875,2.34375 -0.22213,0.89727 -0.86072,1.90546 -1.90625,3 -0.59945,0.62756 -1.15269,1.10408 -1.6875,1.4375 -0.5348,0.33345 -1.04099,0.5281 -1.53125,0.625 -0.49026,0.0969 -0.96134,0.10401 -1.40625,0 -0.4449,-0.104 -0.8859,-0.25993 -1.3125,-0.5 l -2.46875,3.59375 c 0.83228,0.50202 1.67113,0.84127 2.53125,1 0.86013,0.15875 1.73422,0.12293 2.625,-0.0937 0.89078,-0.21668 1.82175,-0.61222 2.75,-1.21875 0.92824,-0.60653 1.86791,-1.44716 2.84375,-2.46875 1.1013,-1.15292 1.95571,-2.23314 2.53125,-3.28125 0.57553,-1.04809 0.89631,-2.04207 1,-2.96875 0.10367,-0.92665 -0.0149,-1.79117 -0.34375,-2.59375 -0.32887,-0.80254 -0.83075,-1.54958 -1.53125,-2.21875 -0.59836,-0.57155 -1.1936,-0.98861 -1.78125,-1.25 -0.58769,-0.26131 -1.1712,-0.4079 -1.75,-0.4375 -0.57881,-0.0296 -1.14436,0.0557 -1.71875,0.21875 -0.5744,0.16306 -1.15427,0.37212 -1.71875,0.65625 -0.56448,0.28416 -1.12132,0.6025 -1.6875,0.96875 -0.56617,0.36629 -1.1253,0.741 -1.6875,1.125 -0.63952,0.43577 -1.2325,0.8395 -1.78125,1.1875 -0.54874,0.34805 -1.08465,0.60973 -1.5625,0.78125 -0.47784,0.17168 -0.92503,0.2386 -1.34375,0.1875 -0.4187,-0.0511 -0.80805,-0.26252 -1.1875,-0.625 -0.2481,-0.23697 -0.43055,-0.50502 -0.5625,-0.8125 -0.13178,-0.30743 -0.20095,-0.64836 -0.15625,-1.03125 0.0448,-0.38285 0.20829,-0.81133 0.46875,-1.28125 0.26046,-0.46987 0.67508,-0.99331 1.21875,-1.5625 0.87826,-0.9194 1.7251,-1.45306 2.53125,-1.625 0.80614,-0.17185 1.58888,-0.0362 2.40625,0.4375 L 128,128.625 c -0.77492,-0.48894 -1.55889,-0.8174 -2.3125,-1 -0.3768,-0.0913 -0.74045,-0.15525 -1.125,-0.15625 z m 563.125,9.34375 -15.8437,14.28125 3,3.3125 15.8124,-14.28125 -2.9687,-3.3125 z m -578.03125,6.5625 c -0.38401,0.0205 -0.76956,0.10766 -1.15625,0.21875 -0.77336,0.22221 -1.5647,0.63482 -2.375,1.25 -0.81029,0.61523 -1.68972,1.44078 -2.59375,2.5 -0.79921,0.93645 -1.43161,1.87781 -1.9375,2.8125 -0.50588,0.93474 -0.81403,1.83576 -0.9375,2.71875 -0.12343,0.88303 -0.0505,1.74881 0.25,2.5625 0.30055,0.81371 0.85031,1.56215 1.65625,2.25 0.59103,0.50443 1.18476,0.87001 1.75,1.09375 0.56526,0.22374 1.10404,0.33015 1.65625,0.34375 0.55223,0.0136 1.09452,-0.048 1.625,-0.21875 0.5305,-0.17077 1.07554,-0.40674 1.59375,-0.6875 0.51822,-0.28075 1.02306,-0.60646 1.53125,-0.96875 0.50819,-0.36227 0.99949,-0.72491 1.5,-1.09375 0.60646,-0.4774 1.20642,-0.91893 1.78125,-1.34375 0.57482,-0.42479 1.12483,-0.78165 1.65625,-1.03125 0.53142,-0.24958 1.03761,-0.372 1.53125,-0.375 0.49363,-0.003 0.96106,0.18256 1.40625,0.5625 0.74454,0.63546 1.04655,1.40423 0.875,2.3125 -0.17156,0.9083 -0.76736,1.94241 -1.75,3.09375 -0.56339,0.66012 -1.07845,1.16842 -1.59375,1.53125 -0.51531,0.36285 -1.01593,0.62584 -1.5,0.75 -0.48407,0.1241 -0.95623,0.1415 -1.40625,0.0625 -0.45004,-0.0789 -0.90439,-0.22167 -1.34375,-0.4375 l -2.25,3.75 c 0.85908,0.45461 1.72609,0.73341 2.59375,0.84375 0.86766,0.11036 1.74774,0.0162 2.625,-0.25 0.87726,-0.26619 1.76341,-0.71747 2.65625,-1.375 0.89284,-0.65752 1.77036,-1.51915 2.6875,-2.59375 1.03505,-1.21275 1.82777,-2.35882 2.34375,-3.4375 0.51597,-1.07866 0.79205,-2.10021 0.84375,-3.03125 0.0516,-0.931 -0.0955,-1.77958 -0.46875,-2.5625 -0.37327,-0.78288 -0.95064,-1.49609 -1.6875,-2.125 -0.62942,-0.53713 -1.24236,-0.89699 -1.84375,-1.125 -0.60139,-0.22801 -1.17045,-0.34675 -1.75,-0.34375 -0.57956,0.003 -1.15439,0.0863 -1.71875,0.28125 -0.56438,0.19495 -1.13981,0.46597 -1.6875,0.78125 -0.5477,0.31532 -1.08021,0.66514 -1.625,1.0625 -0.54478,0.3974 -1.08517,0.80388 -1.625,1.21875 -0.61413,0.47088 -1.19034,0.90307 -1.71875,1.28125 -0.5284,0.3782 -1.0325,0.64576 -1.5,0.84375 -0.46749,0.19807 -0.89159,0.30885 -1.3125,0.28125 -0.4209,-0.0276 -0.85085,-0.22183 -1.25,-0.5625 -0.26096,-0.22272 -0.47605,-0.48165 -0.625,-0.78125 -0.14893,-0.29957 -0.2107,-0.64646 -0.1875,-1.03125 0.0233,-0.38477 0.17251,-0.82874 0.40625,-1.3125 0.23376,-0.48372 0.61403,-1.02628 1.125,-1.625 0.82542,-0.96711 1.61099,-1.56446 2.40625,-1.78125 0.79528,-0.21674 1.62617,-0.0836 2.46875,0.34375 l 2.375,-3.6875 c -0.80105,-0.44485 -1.61236,-0.73484 -2.375,-0.875 -0.38132,-0.0701 -0.74099,-0.11427 -1.125,-0.0937 z m 583.53125,3.5 c -1.2803,-0.0659 -2.5681,0.19233 -3.875,0.71875 -1.307,0.52644 -2.5931,1.31234 -3.875,2.375 -1.2352,1.02406 -2.2328,2.1193 -3,3.3125 -0.7673,1.1932 -1.2749,2.44229 -1.4687,3.75 -0.1939,1.30769 -0.0647,2.6705 0.375,4.0625 0.4395,1.39199 1.2589,2.79709 2.4374,4.21875 0.9018,1.08758 1.8154,1.91814 2.75,2.5 0.9347,0.58183 1.8632,0.99677 2.7813,1.21875 0.918,0.22196 1.8295,0.2692 2.7187,0.1875 0.8892,-0.0817 1.71,-0.2201 2.5,-0.46875 l -1.3437,-3.9375 c -0.5031,0.16797 -1.0309,0.295 -1.5937,0.375 -0.563,0.0799 -1.137,0.0697 -1.7188,-0.0312 -0.5819,-0.10096 -1.1465,-0.33761 -1.7188,-0.65625 -0.5722,-0.31865 -1.153,-0.79272 -1.6874,-1.4375 -0.7086,-0.85455 -1.1568,-1.71438 -1.375,-2.5625 -0.218,-0.84814 -0.222,-1.65526 -0.0313,-2.46875 0.1906,-0.81351 0.5655,-1.60313 1.125,-2.375 0.5595,-0.77185 1.2705,-1.5103 2.125,-2.21875 0.8623,-0.7149 1.7159,-1.29363 2.5625,-1.6875 0.8467,-0.39386 1.6527,-0.5973 2.4688,-0.625 0.8159,-0.0276 1.611,0.15528 2.375,0.53125 0.7638,0.37598 1.4983,0.98126 2.1874,1.8125 0.4896,0.59041 0.8588,1.18954 1.0938,1.78125 0.2349,0.5917 0.3682,1.1357 0.4062,1.6875 0.0381,0.5518 -0.0206,1.10117 -0.1562,1.59375 -0.1357,0.49256 -0.3344,0.91391 -0.5938,1.3125 L 702,162.1875 c 0.4877,-0.77141 0.8571,-1.56121 1.0938,-2.40625 0.2365,-0.84505 0.2967,-1.7316 0.2187,-2.65625 -0.0785,-0.92466 -0.3401,-1.88417 -0.7813,-2.875 -0.4414,-0.99082 -1.0799,-2.02169 -1.9687,-3.09375 -1.1464,-1.38279 -2.3546,-2.42868 -3.5937,-3.125 -1.2393,-0.69631 -2.5011,-1.09035 -3.7813,-1.15625 z m -598.03125,11 L 85,171.21875 101.96875,184.125 112.5,170.28125 l -2.71875,-2.0625 -7.84375,10.28125 -4.46875,-3.40625 6.90625,-9.0625 -2.75,-2.09375 -6.90625,9.0625 -4.25,-3.25 7.4375,-9.78125 -2.75,-2.09375 z m 617.74995,9.5625 -21.8124,6.28125 2.625,3.625 5.5312,-1.6875 4.7812,6.5625 -3.2812,4.71875 2.5938,3.59375 L 716,171.6875 l -3.0938,-4.25 z m -1.0937,4.0625 c -0.0104,0.0201 -0.0967,0.0921 -0.2187,0.25 -0.1221,0.15796 -0.279,0.38009 -0.4688,0.625 -0.1897,0.24488 -0.3729,0.50742 -0.5938,0.8125 -0.2207,0.30504 -0.4425,0.60013 -0.6562,0.90625 l -3.7188,5.3125 -3.625,-4.9375 6.1876,-1.90625 c 0.3566,-0.1106 0.736,-0.2261 1.0937,-0.34375 0.3577,-0.11765 0.6818,-0.24036 0.9687,-0.34375 0.287,-0.1034 0.5029,-0.1776 0.6876,-0.25 0.1846,-0.0723 0.3137,-0.115 0.3437,-0.125 z m -627.40625,6.09375 c -0.87746,0.012 -1.76026,0.19459 -2.625,0.53125 -0.86473,0.33672 -1.70566,0.85904 -2.53125,1.5625 -0.82557,0.70351 -1.62927,1.62559 -2.40625,2.78125 -1.00215,1.49068 -1.65128,2.92694 -1.96875,4.3125 -0.31749,1.38558 -0.33006,2.69089 -0.03125,3.9375 0.29884,1.24664 0.87549,2.42653 1.75,3.53125 0.87454,1.10473 1.99321,2.13352 3.375,3.0625 1.33155,0.89519 2.70104,1.53897 4.0625,1.9375 1.36147,0.39854 2.69084,0.49634 4,0.3125 1.30915,-0.18381 2.5704,-0.68467 3.78125,-1.5 1.21085,-0.81534 2.31343,-1.96746 3.34375,-3.5 0.78822,-1.17242 1.33119,-2.31399 1.625,-3.375 0.29384,-1.06099 0.4217,-2.05661 0.375,-3 -0.04672,-0.94336 -0.23268,-1.82651 -0.5625,-2.65625 -0.32984,-0.82971 -0.72558,-1.59373 -1.1875,-2.28125 l -3.375,2.40625 c 0.30337,0.43501 0.5766,0.92023 0.8125,1.4375 0.23588,0.51732 0.3698,1.06965 0.4375,1.65625 0.06768,0.58663 0.01881,1.2048 -0.125,1.84375 -0.14384,0.63897 -0.43895,1.30492 -0.90625,2 -0.61933,0.92121 -1.31068,1.61343 -2.0625,2.0625 -0.75183,0.44909 -1.54077,0.7029 -2.375,0.75 -0.83422,0.0471 -1.69519,-0.0878 -2.59375,-0.40625 -0.89857,-0.31834 -1.79755,-0.78692 -2.71875,-1.40625 -0.92956,-0.62494 -1.72654,-1.29928 -2.34375,-2 -0.6172,-0.70068 -1.05522,-1.44386 -1.3125,-2.21875 -0.25731,-0.77485 -0.30084,-1.56715 -0.15625,-2.40625 0.14461,-0.83906 0.52257,-1.7289 1.125,-2.625 0.4279,-0.63644 0.8739,-1.13855 1.375,-1.53125 0.50112,-0.39266 1.01273,-0.68248 1.53125,-0.875 0.51854,-0.19249 1.05169,-0.3035 1.5625,-0.3125 0.51082,-0.009 0.98182,0.0514 1.4375,0.1875 l 1.3125,-3.84375 c -0.87785,-0.24968 -1.74752,-0.387 -2.625,-0.375 z m 638.43755,3.78125 -17.9063,11.59375 8.6563,13.34375 2.875,-1.875 -6.2188,-9.59375 15.0312,-9.71875 -2.4374,-3.75 z M 71.9375,198.21875 c -0.66836,0.0114 -1.29766,0.0949 -1.9375,0.25 -1.27967,0.31024 -2.47501,0.91748 -3.59375,1.8125 -1.11871,0.89506 -2.12465,2.09499 -3,3.59375 -0.87533,1.4988 -1.42197,2.93218 -1.65625,4.34375 -0.23426,1.41161 -0.1979,2.76682 0.15625,4.03125 0.35419,1.26446 1.01521,2.41796 1.9375,3.5 0.9223,1.08207 2.09347,2.06654 3.53125,2.90625 1.38551,0.80918 2.76213,1.36206 4.15625,1.65625 1.39414,0.29421 2.75997,0.27934 4.0625,0 1.30254,-0.27933 2.50702,-0.84152 3.65625,-1.71875 1.14922,-0.87722 2.19296,-2.08264 3.09375,-3.625 0.84989,-1.4552 1.37254,-2.89326 1.59375,-4.3125 0.22118,-1.41921 0.14957,-2.77224 -0.21875,-4.0625 -0.36833,-1.29022 -1.01051,-2.51096 -1.9375,-3.625 -0.92701,-1.114 -2.12472,-2.09776 -3.5625,-2.9375 -1.42908,-0.8346 -2.82497,-1.36021 -4.21875,-1.625 -0.69689,-0.13236 -1.39414,-0.19887 -2.0625,-0.1875 z m -0.8125,4.375 c 0.63407,-0.0296 1.31394,0.0191 2,0.1875 0.91477,0.22456 1.84527,0.62263 2.8125,1.1875 0.9411,0.54966 1.76232,1.16898 2.4375,1.84375 0.67517,0.67482 1.14628,1.40904 1.46875,2.1875 0.32242,0.77849 0.47645,1.59823 0.40625,2.46875 -0.07019,0.87054 -0.38787,1.77767 -0.9375,2.71875 -0.51401,0.88011 -1.12947,1.5486 -1.84375,2.03125 -0.71428,0.48268 -1.50399,0.78903 -2.34375,0.90625 -0.83975,0.11725 -1.72406,0.0785 -2.65625,-0.15625 -0.9322,-0.23469 -1.88522,-0.65893 -2.84375,-1.21875 -0.96723,-0.56489 -1.75867,-1.1617 -2.40625,-1.84375 -0.64756,-0.68203 -1.11319,-1.43991 -1.40625,-2.21875 -0.2929,-0.77882 -0.4063,-1.58658 -0.3125,-2.4375 0.0938,-0.85088 0.41332,-1.72745 0.9375,-2.625 0.51402,-0.88008 1.12256,-1.57145 1.8125,-2.0625 0.68996,-0.49101 1.42768,-0.77881 2.25,-0.90625 0.20558,-0.0318 0.41364,-0.0526 0.625,-0.0625 z M 58.6875,219.25 c -0.62409,0.0329 -1.25103,0.17609 -1.84375,0.4375 -0.79026,0.3486 -1.53808,0.90142 -2.25,1.65625 -0.71189,0.75488 -1.34002,1.747 -1.9375,2.9375 l -4.78125,9.5 19.0625,9.5625 2,-3.96875 -7.25,-3.625 2.34375,-4.6875 9.46875,-0.8125 2.25,-4.46875 -10.59375,1.125 c 0.15896,-0.67669 0.20945,-1.36099 0.15625,-2.03125 -0.05315,-0.67023 -0.22787,-1.30109 -0.5,-1.90625 -0.27213,-0.60511 -0.64062,-1.14781 -1.125,-1.65625 -0.48438,-0.5084 -1.06875,-0.95487 -1.78125,-1.3125 -0.87484,-0.43903 -1.74766,-0.6923 -2.59375,-0.75 -0.21152,-0.0144 -0.41697,-0.011 -0.625,0 z M 747,223.59375 740.8125,234.0625 727.5,232.25 l 2.0625,4.25 9.9687,1.15625 -5.3437,8.5 2.0313,4.25 7.0312,-11.25 11.9375,1.46875 -2.0313,-4.25 -8.8437,-1 4.75,-7.53125 -2.0625,-4.25 z m -688.28125,0.125 c 0.42136,0.0209 0.84803,0.14189 1.3125,0.375 0.4239,0.21276 0.77865,0.46947 1.0625,0.78125 0.28385,0.31184 0.50601,0.68969 0.625,1.09375 0.119,0.4041 0.1377,0.8452 0.0625,1.34375 -0.0752,0.49858 -0.26376,1.061 -0.5625,1.65625 l -2.625,5.21875 -5.625,-2.84375 2.5625,-5.09375 c 0.5658,-1.12737 1.21228,-1.89876 1.96875,-2.28125 0.37825,-0.19123 0.79739,-0.27093 1.21875,-0.25 z M 49.5,239.8125 c -0.88573,-0.0349 -1.7564,0.1327 -2.5625,0.5 -0.80608,0.36735 -1.554,0.96186 -2.25,1.75 -0.69598,0.78819 -1.30549,1.81106 -1.84375,3.0625 l -3.78125,8.78125 19.59375,8.4375 1.75,-4.09375 -6.875,-2.96875 2.09375,-4.875 c 0.53026,-1.23291 0.7827,-2.38478 0.8125,-3.4375 0.02984,-1.05269 -0.11736,-2.00056 -0.46875,-2.84375 -0.35137,-0.84315 -0.86952,-1.56784 -1.53125,-2.1875 -0.66172,-0.61961 -1.40627,-1.10626 -2.25,-1.46875 -0.91774,-0.39469 -1.80175,-0.62135 -2.6875,-0.65625 z m -0.4375,4.46875 c 0.44883,0.0132 0.93224,0.12656 1.4375,0.34375 0.48206,0.20735 0.87531,0.46879 1.21875,0.78125 0.34346,0.3125 0.58822,0.67816 0.75,1.09375 0.16179,0.41562 0.25055,0.8669 0.21875,1.375 -0.03179,0.50813 -0.20558,1.07569 -0.46875,1.6875 L 50.375,253.90625 44,251.1875 l 1.84375,-4.25 c 0.5223,-1.21436 1.1526,-1.99305 1.9375,-2.375 0.39245,-0.19094 0.83242,-0.29444 1.28125,-0.28125 z m 707.7813,0.1875 -19.6876,8.125 6.625,16.09375 3.1876,-1.34375 -4.9376,-11.9375 5.1876,-2.125 4.3437,10.5 3.1875,-1.3125 -4.3438,-10.53125 4.9688,-2.03125 4.6875,11.375 3.1875,-1.3125 -6.4062,-15.5 z m 8.25,20.34375 -20.1563,6.96875 1.4687,4.21875 7.6563,-2.65625 1.7187,4.96875 -6.0624,7.3125 1.6562,4.75 6.5938,-8.375 c 0.3732,0.5864 0.7956,1.10115 1.3124,1.53125 0.5169,0.43008 1.0957,0.77208 1.7188,1 0.6231,0.22789 1.2978,0.33575 2,0.34375 0.7021,0.008 1.4339,-0.11485 2.1875,-0.375 0.9252,-0.31945 1.6803,-0.77854 2.3125,-1.34375 0.6322,-0.56524 1.1037,-1.25347 1.4062,-2.0625 0.3024,-0.80904 0.4493,-1.71331 0.4063,-2.75 -0.043,-1.03672 -0.2841,-2.1784 -0.7187,-3.4375 l -3.5,-10.09375 z m -727.6563,3.875 c -0.41728,0.009 -0.83868,0.0797 -1.21875,0.15625 -0.76011,0.15322 -1.45824,0.4752 -2.09375,0.96875 -0.63548,0.4936 -1.19494,1.15908 -1.71875,2.03125 -0.52376,0.8722 -1.02286,1.962 -1.46875,3.28125 -0.39416,1.16632 -0.65876,2.28801 -0.78125,3.34375 -0.12245,1.05577 -0.05712,2.00932 0.15625,2.875 0.21341,0.86569 0.60623,1.63743 1.1875,2.28125 0.58132,0.64382 1.37124,1.12948 2.375,1.46875 0.73613,0.24879 1.3921,0.377 2,0.375 0.60793,-0.002 1.16974,-0.12 1.6875,-0.3125 0.51777,-0.1925 1.00842,-0.45688 1.4375,-0.8125 0.42911,-0.35562 0.84192,-0.76558 1.21875,-1.21875 0.37686,-0.45316 0.72525,-0.9436 1.0625,-1.46875 0.33726,-0.52511 0.67232,-1.03414 1,-1.5625 0.38573,-0.66852 0.74911,-1.32954 1.125,-1.9375 0.3759,-0.60792 0.78683,-1.1021 1.1875,-1.53125 0.40068,-0.42911 0.82415,-0.75111 1.28125,-0.9375 0.45711,-0.18589 0.94551,-0.18734 1.5,0 0.92731,0.31342 1.47814,0.93674 1.65625,1.84375 0.17811,0.90704 0.04715,2.06602 -0.4375,3.5 -0.27786,0.82216 -0.59385,1.50296 -0.9375,2.03125 -0.34365,0.52831 -0.72168,0.92367 -1.125,1.21875 -0.40331,0.29511 -0.83409,0.49985 -1.28125,0.59375 -0.44714,0.0941 -0.91816,0.13085 -1.40625,0.0937 l -0.6875,4.3125 c 0.96649,0.10296 1.87218,0.0324 2.71875,-0.1875 0.84656,-0.21984 1.62815,-0.61447 2.34375,-1.1875 0.71561,-0.57301 1.35278,-1.30786 1.9375,-2.25 0.58471,-0.94213 1.11017,-2.09911 1.5625,-3.4375 0.51049,-1.51046 0.7966,-2.86933 0.875,-4.0625 0.07836,-1.19314 -0.01463,-2.21015 -0.3125,-3.09375 -0.29789,-0.88358 -0.76888,-1.6305 -1.40625,-2.21875 -0.63736,-0.58822 -1.42598,-1.0336 -2.34375,-1.34375 -0.78391,-0.26492 -1.48194,-0.3867 -2.125,-0.375 -0.64306,0.0117 -1.24423,0.12583 -1.78125,0.34375 -0.53701,0.21797 -1.04842,0.51565 -1.5,0.90625 -0.45158,0.39065 -0.85861,0.81633 -1.25,1.3125 -0.39137,0.4962 -0.7668,1.0537 -1.125,1.625 -0.35818,0.57133 -0.71541,1.13305 -1.0625,1.71875 -0.39528,0.66532 -0.77487,1.2651 -1.125,1.8125 -0.3501,0.54742 -0.702,1.01751 -1.0625,1.375 -0.36048,0.35751 -0.72396,0.588 -1.125,0.71875 -0.40102,0.13075 -0.84661,0.13675 -1.34375,-0.0312 -0.32502,-0.10984 -0.62541,-0.27716 -0.875,-0.5 -0.24956,-0.2228 -0.44115,-0.54035 -0.5625,-0.90625 -0.121,-0.36588 -0.1623,-0.80779 -0.125,-1.34375 0.03735,-0.53594 0.1855,-1.16055 0.4375,-1.90625 0.40711,-1.20453 0.93592,-2.06581 1.59375,-2.5625 0.65786,-0.49665 1.46523,-0.7087 2.40625,-0.625 l 0.8125,-4.28125 c -0.45449,-0.0577 -0.86397,-0.10318 -1.28125,-0.0937 z m 725.8437,1.46875 1.875,5.4375 c 0.4116,1.19233 0.5046,2.19147 0.25,3 -0.2546,0.80852 -0.8924,1.37955 -1.875,1.71875 -0.4483,0.15483 -0.8911,0.2022 -1.3124,0.1875 -0.4214,-0.0147 -0.8153,-0.11544 -1.1876,-0.3125 -0.3722,-0.19709 -0.6956,-0.50421 -1,-0.90625 -0.3043,-0.40206 -0.5639,-0.90171 -0.7812,-1.53125 l -1.9062,-5.53125 5.9374,-2.0625 z m 2.5,18.65625 c -1.0989,0.029 -2.2648,0.23079 -3.4687,0.5625 -1.5468,0.42621 -2.9093,1.02038 -4.0937,1.8125 -1.1843,0.7921 -2.1338,1.7478 -2.8438,2.875 -0.71,1.12719 -1.1375,2.40862 -1.3125,3.84375 -0.175,1.43513 -0.0369,3.02803 0.4375,4.75 0.4476,1.62467 1.1077,3.00659 1.9688,4.15625 0.8611,1.14965 1.8819,2.04978 3.0624,2.6875 1.1805,0.63769 2.4928,1.01015 3.9376,1.125 1.4446,0.1148 2.9572,-0.0577 4.5624,-0.5 1.5954,-0.43962 2.9932,-1.06261 4.1563,-1.875 1.163,-0.81243 2.0781,-1.77386 2.75,-2.90625 0.6719,-1.13242 1.0777,-2.41801 1.2187,-3.84375 0.1411,-1.42576 -0.008,-2.98293 -0.4687,-4.65625 -0.4611,-1.67333 -1.1222,-3.09633 -1.9687,-4.25 -0.8465,-1.15368 -1.8479,-2.02642 -3,-2.65625 -1.1522,-0.6298 -2.4566,-0.99785 -3.875,-1.09375 -0.3547,-0.024 -0.6962,-0.0409 -1.0626,-0.0312 z m -721.2187,3.125 -3.0625,11 -17.21875,-4.78125 -1.21875,4.28125 20.5625,5.75 4.25,-15.34375 -3.3125,-0.90625 z m 721.2813,1.34375 c 0.2438,-0.0161 0.4836,-0.003 0.7187,0 0.9404,0.013 1.7692,0.16567 2.5313,0.5 0.762,0.33434 1.4253,0.83851 1.9687,1.5 0.5434,0.66148 0.9426,1.49794 1.2187,2.5 0.2713,0.98259 0.3493,1.88203 0.2188,2.71875 -0.1306,0.83671 -0.4229,1.6038 -0.9062,2.28125 -0.4833,0.67742 -1.1378,1.25228 -1.9376,1.75 -0.7997,0.4977 -1.7326,0.9212 -2.8124,1.21875 -1.0508,0.28943 -2.0768,0.4257 -3.0313,0.4375 -0.9545,0.0118 -1.8114,-0.12447 -2.5937,-0.4375 -0.7824,-0.31305 -1.4574,-0.81045 -2.0313,-1.46875 -0.5739,-0.65833 -0.9917,-1.51183 -1.2813,-2.5625 -0.2708,-0.9826 -0.3411,-1.90173 -0.1874,-2.75 0.1536,-0.84829 0.466,-1.6297 0.9687,-2.3125 0.5027,-0.68281 1.1808,-1.24693 2,-1.75 0.8191,-0.50308 1.7735,-0.9239 2.8437,-1.21875 0.81,-0.22315 1.5811,-0.35779 2.3126,-0.40625 z m -723.00005,17.6875 -22.5,3.03125 -1.125,5.15625 19.1875,12.125 0.9375,-4.34375 -4.90625,-3 1.71875,-7.96875 5.71875,-0.6875 0.96875,-4.3125 z m 729.43745,2 c -1.0955,-0.0296 -2.2455,0.0921 -3.4687,0.34375 -1.5716,0.32326 -2.9787,0.81737 -4.2187,1.5 -1.2403,0.68263 -2.2445,1.56685 -3.0313,2.625 -0.7869,1.05815 -1.3295,2.30481 -1.5937,3.75 -0.2643,1.44516 -0.1928,3.08914 0.1874,4.9375 0.2298,1.1169 0.5354,2.14103 0.9376,3.09375 0.402,0.95268 0.871,1.82168 1.375,2.59375 0.5039,0.77202 1.0469,1.44958 1.625,2.03125 0.578,0.58163 1.1367,1.06266 1.7187,1.4375 l 7.6875,-1.5625 -1.875,-9.125 -3.2188,0.6875 1.0313,5.09375 -2.875,0.59375 c -0.2802,-0.21024 -0.5801,-0.48716 -0.875,-0.84375 -0.2948,-0.3566 -0.578,-0.78442 -0.8437,-1.25 -0.2657,-0.46562 -0.5,-0.96843 -0.7188,-1.53125 -0.2188,-0.56285 -0.4011,-1.17993 -0.5312,-1.8125 -0.2219,-1.07739 -0.2344,-2.0403 -0.0313,-2.90625 0.2031,-0.86598 0.5794,-1.62815 1.125,-2.28125 0.5456,-0.65311 1.2675,-1.18592 2.125,-1.625 0.8575,-0.43911 1.819,-0.7764 2.9063,-1 1.097,-0.2257 2.1269,-0.3151 3.0624,-0.25 0.9355,0.0651 1.7618,0.30364 2.5,0.6875 0.7383,0.38386 1.3401,0.93565 1.8438,1.65625 0.5036,0.72059 0.8701,1.63148 1.0938,2.71875 0.1476,0.74131 0.2102,1.41743 0.1562,2.03125 -0.054,0.61379 -0.1739,1.15641 -0.375,1.65625 -0.2011,0.49981 -0.4831,0.93566 -0.8125,1.3125 -0.3295,0.37683 -0.6955,0.70136 -1.0937,0.96875 l 2.0624,3.78125 c 0.7673,-0.47721 1.4395,-1.03137 2,-1.6875 0.5605,-0.65618 0.9956,-1.41766 1.3126,-2.28125 0.3169,-0.86364 0.4842,-1.83038 0.5312,-2.90625 0.0465,-1.07588 -0.0733,-2.27916 -0.3438,-3.59375 -0.372,-1.80882 -0.9441,-3.32586 -1.7187,-4.5625 -0.7747,-1.23664 -1.7063,-2.21171 -2.8125,-2.90625 -1.1061,-0.69454 -2.3459,-1.11674 -3.75,-1.28125 -0.351,-0.0411 -0.7286,-0.0839 -1.0938,-0.0937 z M 32.65625,316.25 31.34375,322.21875 25.8125,318.875 c -0.31917,-0.1937 -0.64354,-0.40388 -0.96875,-0.59375 -0.32517,-0.18988 -0.60741,-0.35371 -0.875,-0.5 -0.26757,-0.14627 -0.51095,-0.25355 -0.6875,-0.34375 -0.17651,-0.0903 -0.25365,-0.14015 -0.28125,-0.15625 0.02189,-0.005 0.11338,-0.0181 0.3125,-0.0312 0.19918,-0.0133 0.47212,-0.0422 0.78125,-0.0625 0.30915,-0.0202 0.62526,-0.0568 1,-0.0937 0.37477,-0.0368 0.75411,-0.0509 1.125,-0.0937 l 6.4375,-0.75 z M 17,330.4375 l -0.75,4.40625 21,3.65625 0.75,-4.375 -21,-3.6875 z m 767.25,6.5 -21.125,2.96875 0.625,4.40625 8.0312,-1.125 0.7188,5.1875 -7.3438,6.03125 0.7188,5 8.0625,-6.96875 c 0.2537,0.64715 0.5754,1.22867 1,1.75 0.4246,0.5213 0.9322,0.96916 1.5,1.3125 0.5677,0.34329 1.1876,0.57561 1.875,0.71875 0.6875,0.1431 1.4292,0.14183 2.2187,0.0312 0.9694,-0.13585 1.8335,-0.41046 2.5626,-0.84375 0.729,-0.43334 1.2977,-1.01413 1.75,-1.75 0.4522,-0.7359 0.7806,-1.6306 0.9374,-2.65625 0.1568,-1.02569 0.1223,-2.18086 -0.0624,-3.5 L 784.25,336.9375 z m -763.96875,3.28125 c -0.44717,0.0237 -0.87213,0.0761 -1.28125,0.1875 -0.81822,0.22294 -1.55516,0.63037 -2.1875,1.21875 -0.63229,0.58842 -1.13741,1.36599 -1.5625,2.3125 -0.42506,0.94655 -0.73209,2.08566 -0.90625,3.40625 L 12.9375,357.90625 34.09375,360.6875 34.6875,356.25 26.65625,355.1875 27.3125,350 36,346.15625 l 0.65625,-4.96875 -9.625,4.53125 C 26.95957,345.02736 26.76997,344.3658 26.5,343.75 c -0.26995,-0.61575 -0.60701,-1.14251 -1.0625,-1.625 -0.45548,-0.48244 -1.00068,-0.89725 -1.625,-1.21875 -0.62428,-0.3215 -1.33463,-0.52077 -2.125,-0.625 -0.48521,-0.064 -0.95908,-0.0862 -1.40625,-0.0625 z m 761.15625,1.625 0.7813,5.65625 c 0.1749,1.24917 0.0613,2.25541 -0.3438,3 -0.4052,0.74456 -1.0957,1.19952 -2.125,1.34375 -0.4697,0.0658 -0.9331,0.0328 -1.3438,-0.0625 -0.4108,-0.0953 -0.7661,-0.26637 -1.0937,-0.53125 -0.3275,-0.26491 -0.5911,-0.60953 -0.8125,-1.0625 -0.2214,-0.453 -0.408,-1.02794 -0.5,-1.6875 l -0.8125,-5.78125 6.25,-0.875 z m -760.90625,2.875 c 0.23004,-0.0126 0.49239,-0.003 0.75,0.0312 0.47029,0.0619 0.87964,0.20471 1.25,0.40625 0.3704,0.20153 0.69262,0.46978 0.9375,0.8125 0.24491,0.34275 0.4076,0.75436 0.5,1.25 0.0924,0.49569 0.0871,1.08972 0,1.75 l -0.75,5.78125 -6.25,-0.8125 0.75,-5.6875 c 0.16492,-1.25055 0.53573,-2.17188 1.125,-2.78125 0.44196,-0.45699 0.99738,-0.71217 1.6875,-0.75 z M 766,360.8125 l 0.375,4.4375 5.5625,1.46875 0.625,8.125 -5.2813,2.3125 0.3438,4.40625 20.6562,-9.40625 -0.4062,-5.25 L 766,360.8125 z m -753.5625,2.21875 -1.21875,16.75 21.25,1.5625 L 33.75,364 l -3.4375,-0.25 -0.9375,12.875 -5.625,-0.40625 0.84375,-11.34375 -3.4375,-0.25 -0.84375,11.34375 -5.34375,-0.40625 0.90625,-12.25 -3.4375,-0.28125 z m 762.9375,4.4375 6.2812,1.625 c 0.3615,0.0932 0.7276,0.1622 1.0938,0.25 0.3662,0.0878 0.6704,0.15605 0.9688,0.21875 0.2984,0.0627 0.5549,0.12085 0.75,0.15625 0.195,0.0354 0.3127,0.0545 0.3437,0.0625 -0.0194,0.0116 -0.1257,0.0547 -0.3125,0.125 -0.1868,0.0703 -0.4288,0.17252 -0.7188,0.28125 -0.2902,0.1087 -0.5895,0.23138 -0.9374,0.375 -0.3482,0.1436 -0.72,0.28925 -1.0626,0.4375 l -5.9374,2.5625 -0.4688,-6.09375 z m -764.34375,15.84375 -0.375,18.25 3.4375,0.0937 0.15625,-6.90625 17.875,0.375 0.09375,-4.46875 -17.875,-0.375 0.125,-6.875 -3.4375,-0.0937 z m 777.99995,0.75 -21.3124,0.40625 0.0937,4.46875 7.5,-0.15625 0.0937,5.28125 c 0.0258,1.34187 0.249,2.49755 0.6563,3.46875 0.4072,0.97116 0.9258,1.78322 1.5937,2.40625 0.6681,0.623 1.4541,1.08366 2.3126,1.375 0.8585,0.29131 1.7381,0.42385 2.6562,0.40625 0.9988,-0.0192 1.8975,-0.19753 2.7188,-0.53125 0.8212,-0.33375 1.5423,-0.83276 2.125,-1.5 0.5825,-0.66727 1.0037,-1.49487 1.3124,-2.5 0.3088,-1.00516 0.4636,-2.20045 0.4376,-3.5625 l -0.1876,-9.5625 z m -3.375,4.53125 0.0938,4.59375 c 0.0255,1.32169 -0.2552,2.32816 -0.8125,3 -0.5574,0.67182 -1.3691,1.01005 -2.4687,1.03125 -0.5247,0.0101 -1.027,-0.0446 -1.4688,-0.1875 -0.4418,-0.14291 -0.8061,-0.37572 -1.125,-0.6875 -0.3189,-0.31181 -0.5693,-0.71157 -0.75,-1.1875 -0.1808,-0.47596 -0.2683,-1.05286 -0.2812,-1.71875 l -0.0938,-4.71875 6.9062,-0.125 z m -753.7187,14.59375 -21.03125,8.5 0.1875,5.28125 21.59375,7 L 32.53125,419.5 27,417.8125 l -0.28125,-8.125 5.375,-2.0625 -0.15625,-4.4375 z M 768,405.15625 l -0.1562,4.46875 9.125,0.375 -0.375,9.28125 -9.125,-0.375 -0.1876,4.46875 21.3126,0.84375 0.1874,-4.46875 -8.4687,-0.34375 0.3437,-9.28125 8.5,0.34375 L 789.3125,406 768,405.15625 z m -744.59375,5.65625 0.21875,6.125 -6.21875,-1.875 c -0.35724,-0.10851 -0.70037,-0.24044 -1.0625,-0.34375 -0.3621,-0.10331 -0.70448,-0.1746 -1,-0.25 -0.29548,-0.0754 -0.52533,-0.1438 -0.71875,-0.1875 -0.19338,-0.0437 -0.31295,-0.0535 -0.34375,-0.0625 0.01983,-0.0108 0.12286,-0.0627 0.3125,-0.125 0.18966,-0.0622 0.42429,-0.12245 0.71875,-0.21875 0.29449,-0.0962 0.61486,-0.2151 0.96875,-0.34375 0.35393,-0.12862 0.71382,-0.27274 1.0625,-0.40625 l 6.0625,-2.3125 z M 32.875,426.84375 11.65625,429 12.25,434.90625 24.5625,437.4375 c 0.15568,0.035 0.33442,0.084 0.53125,0.125 0.19687,0.0409 0.40806,0.0861 0.625,0.125 0.21694,0.0389 0.42929,0.0559 0.65625,0.0937 0.22698,0.0379 0.43935,0.0861 0.65625,0.125 0.49513,0.0818 1.02621,0.1623 1.5625,0.25 -0.5179,0.19439 -1.02022,0.39227 -1.5,0.5625 -0.41049,0.1531 -0.84112,0.3076 -1.28125,0.46875 -0.4401,0.16117 -0.79265,0.30563 -1.09375,0.4375 l -11.5,5 0.59375,5.9375 21.21875,-2.15625 -0.375,-3.9375 -12.875,1.3125 c -0.39155,0.0396 -0.8449,0.0824 -1.375,0.15625 -0.53006,0.0739 -1.05135,0.14995 -1.53125,0.21875 -0.55917,0.087 -1.10822,0.19225 -1.6875,0.28125 0.77082,-0.3011 1.49499,-0.60209 2.1875,-0.875 0.29207,-0.12082 0.59413,-0.25214 0.90625,-0.375 0.31215,-0.12286 0.6137,-0.22794 0.90625,-0.34375 0.29258,-0.1158 0.55909,-0.24204 0.8125,-0.34375 0.25344,-0.1017 0.4716,-0.1705 0.65625,-0.25 l 11.46875,-5.0312 -0.34375,-3.15625 -12.21875,-2.625 c -0.19684,-0.0409 -0.41833,-0.10225 -0.6875,-0.15625 -0.26914,-0.0539 -0.56517,-0.10135 -0.875,-0.15625 -0.30981,-0.0549 -0.63833,-0.0983 -0.96875,-0.15625 -0.3304,-0.0578 -0.62815,-0.1377 -0.9375,-0.1875 -0.73211,-0.11863 -1.52925,-0.24438 -2.34375,-0.375 0.50405,-0.0307 1.02735,-0.0388 1.5625,-0.0625 0.45384,-0.0256 0.95633,-0.0539 1.5,-0.0937 0.54369,-0.0398 1.08173,-0.10445 1.59375,-0.15625 L 33.25,430.8125 32.875,426.84375 z m 755.5,1.25 -13.2812,6.34375 -8.6876,-0.875 -0.4374,4.4375 8.6874,0.84375 11.7813,8.8125 0.4687,-4.65625 -8.4687,-6.03125 9.4687,-4.21875 0.4688,-4.65625 z M 43.5,477.15625 22.78125,482.125 23.6875,486 36.28125,482.96875 c 0.38264,-0.092 0.82844,-0.19911 1.34375,-0.34375 0.51528,-0.14464 1.0025,-0.30466 1.46875,-0.4375 0.54236,-0.16152 1.09423,-0.3025 1.65625,-0.46875 -0.72321,0.40224 -1.41307,0.76129 -2.0625,1.125 -0.27317,0.15902 -0.55104,0.33619 -0.84375,0.5 -0.29279,0.16373 -0.56947,0.31458 -0.84375,0.46875 -0.2743,0.15419 -0.54384,0.3026 -0.78125,0.4375 -0.23742,0.13492 -0.45293,0.23976 -0.625,0.34375 l -10.65625,6.53125 0.75,3.09375 12.46875,0.96875 c 0.20056,0.014 0.41352,0.014 0.6875,0.0312 0.27396,0.0172 0.59183,0.0498 0.90625,0.0625 0.31437,0.0126 0.63353,0.0184 0.96875,0.0312 0.33518,0.0128 0.6555,0.0233 0.96875,0.0312 0.74142,0.019 1.51908,0.0428 2.34375,0.0625 -0.49532,0.0983 -1.00418,0.18565 -1.53125,0.28125 -0.44626,0.0865 -0.93541,0.16858 -1.46875,0.28125 -0.53338,0.11263 -1.06212,0.25469 -1.5625,0.375 l -12.5625,3 0.9375,3.875 20.71875,-5 -1.375,-5.78125 -12.5625,-0.84375 c -0.15899,-0.0137 -0.33069,-0.0172 -0.53125,-0.0312 -0.20058,-0.0141 -0.40481,-0.0222 -0.625,-0.0312 -0.22021,-0.009 -0.4575,-0.0242 -0.6875,-0.0312 -0.23002,-0.007 -0.43606,-0.0222 -0.65625,-0.0312 -0.50162,-0.0144 -1.01929,-0.0165 -1.5625,-0.0312 0.48696,-0.26243 0.95379,-0.51668 1.40625,-0.75 0.38615,-0.20698 0.77309,-0.43727 1.1875,-0.65625 0.41434,-0.21905 0.78217,-0.39086 1.0625,-0.5625 l 10.6875,-6.5 -1.40625,-5.8125 z m 717.3125,9.71875 c -0.9146,-0.0563 -1.7514,0.0166 -2.5,0.21875 -0.7485,0.20218 -1.429,0.59128 -2.0313,1.125 -0.6021,0.53376 -1.1276,1.25196 -1.5937,2.15625 -0.4662,0.90433 -0.8905,2.02962 -1.25,3.375 -0.3177,1.18943 -0.5085,2.31354 -0.5625,3.375 -0.0537,1.06148 0.0434,1.99373 0.3125,2.84375 0.269,0.85003 0.722,1.5827 1.3437,2.1875 0.6219,0.60479 1.4451,1.03905 2.4688,1.3125 0.7507,0.20052 1.4247,0.2917 2.0312,0.25 0.6065,-0.0417 1.1833,-0.18059 1.6876,-0.40625 0.5042,-0.22567 0.9386,-0.52355 1.3437,-0.90625 0.4051,-0.3827 0.7786,-0.80441 1.125,-1.28125 0.3467,-0.47664 0.6975,-0.98533 1,-1.53125 0.3025,-0.54587 0.5822,-1.10774 0.875,-1.65625 0.3415,-0.69212 0.6956,-1.33771 1.0313,-1.96875 0.336,-0.63073 0.6904,-1.20203 1.0624,-1.65625 0.372,-0.45419 0.7748,-0.78437 1.2188,-1 0.4441,-0.21556 0.9346,-0.24479 1.5,-0.0937 0.9457,0.25263 1.5447,0.8252 1.7812,1.71875 0.2365,0.89358 0.1719,2.06887 -0.2187,3.53125 -0.224,0.83844 -0.5038,1.54427 -0.8125,2.09375 -0.3087,0.54944 -0.648,0.99188 -1.0312,1.3125 -0.3835,0.32063 -0.8099,0.53359 -1.25,0.65625 -0.4401,0.12267 -0.8856,0.1925 -1.375,0.1875 l -0.4376,4.34375 c 0.9711,0.0401 1.8883,-0.0695 2.7188,-0.34375 0.8306,-0.27428 1.573,-0.72554 2.25,-1.34375 0.6769,-0.61818 1.2588,-1.42818 1.7812,-2.40625 0.5225,-0.97805 0.9792,-2.1351 1.3438,-3.5 0.4115,-1.54038 0.6242,-2.92926 0.625,-4.125 9e-4,-1.19571 -0.1768,-2.20006 -0.5312,-3.0625 -0.3547,-0.8624 -0.8884,-1.57933 -1.5626,-2.125 -0.674,-0.54565 -1.4703,-0.93746 -2.4062,-1.1875 -0.7994,-0.21351 -1.5152,-0.3033 -2.1562,-0.25 -0.6409,0.0534 -1.2283,0.21646 -1.75,0.46875 -0.5218,0.25233 -0.981,0.58095 -1.4063,1 -0.4254,0.41908 -0.8291,0.88574 -1.1875,1.40625 -0.3584,0.52053 -0.6796,1.09416 -1,1.6875 -0.3204,0.59335 -0.6604,1.17428 -0.9688,1.78125 -0.3513,0.68955 -0.686,1.33733 -1,1.90625 -0.3139,0.56893 -0.6321,1.02617 -0.9687,1.40625 -0.3366,0.38013 -0.7021,0.65604 -1.0937,0.8125 -0.3917,0.15651 -0.8368,0.16668 -1.3438,0.0312 -0.3315,-0.0886 -0.6115,-0.23131 -0.875,-0.4375 -0.2635,-0.20617 -0.4802,-0.48649 -0.625,-0.84375 -0.1445,-0.35724 -0.2188,-0.8065 -0.2188,-1.34375 0.003,-0.53724 0.1095,-1.17704 0.3126,-1.9375 0.3281,-1.22839 0.8133,-2.11795 1.4374,-2.65625 0.6243,-0.53826 1.3994,-0.80375 2.3438,-0.78125 l 0.5625,-4.34375 z m -9.9687,17.75 -1.875,5.65625 10.1874,7.34375 c 0.1281,0.0952 0.2747,0.22571 0.4376,0.34375 0.1629,0.11791 0.3492,0.21943 0.5312,0.34375 0.1818,0.12449 0.371,0.24747 0.5625,0.375 0.1915,0.12763 0.3806,0.28193 0.5625,0.40625 0.4181,0.27758 0.8281,0.54385 1.2812,0.84375 -0.552,-0.035 -1.0551,-0.0522 -1.5624,-0.0937 -0.4373,-0.0287 -0.9076,-0.0602 -1.375,-0.0937 -0.4676,-0.0334 -0.8588,-0.0595 -1.1876,-0.0625 l -12.5312,-0.15625 -1.875,5.65625 20.2188,6.75 1.25,-3.75 -12.25,-4.09375 c -0.3734,-0.1244 -0.83,-0.25631 -1.3438,-0.40625 -0.5138,-0.14993 -1.0028,-0.30351 -1.4688,-0.4375 -0.5456,-0.14992 -1.0913,-0.28118 -1.6562,-0.4375 0.8265,0.0415 1.6001,0.0588 2.3438,0.0937 0.3159,0.01 0.6648,0.0154 1,0.0312 0.335,0.016 0.6544,0.0482 0.9687,0.0625 0.3144,0.0143 0.6022,0.0201 0.875,0.0312 0.2728,0.0112 0.5177,0.0282 0.7187,0.0312 l 12.5,0.0937 1,-3 -10.0624,-7.40625 c -0.1622,-0.1187 -0.3702,-0.2469 -0.5938,-0.40625 -0.2233,-0.15957 -0.4587,-0.3541 -0.7188,-0.53125 -0.26,-0.17705 -0.5347,-0.34298 -0.8124,-0.53125 -0.2776,-0.18825 -0.5508,-0.35897 -0.8126,-0.53125 -0.6191,-0.4084 -1.2794,-0.85942 -1.9687,-1.3125 0.4723,0.17869 0.9708,0.36472 1.4687,0.5625 0.4245,0.16273 0.8941,0.34464 1.4063,0.53125 0.5122,0.18665 1.0117,0.36857 1.5,0.53125 l 12.25,4.09375 1.25,-3.78125 -20.2187,-6.75 z M 28.625,506 l 1.3125,4.25 5.75,0.21875 2.40625,7.75 -4.65625,3.40625 1.3125,4.25 18.09375,-13.6875 -1.5625,-5.03125 L 28.625,506 z m 10.5625,4.4375 6.5,0.1875 c 0.37317,0.0118 0.74846,0.0263 1.125,0.0312 0.37651,0.006 0.69506,0.004 1,0 0.30491,-0.004 0.58315,-0.0233 0.78125,-0.0312 0.19808,-0.008 0.31185,-6.9e-4 0.34375,0 -0.01642,0.0154 -0.11415,0.0784 -0.28125,0.1875 -0.16691,0.10949 -0.39677,0.26828 -0.65625,0.4375 -0.25929,0.16957 -0.53558,0.34611 -0.84375,0.5625 -0.30825,0.21631 -0.60434,0.43658 -0.90625,0.65625 l -5.25,3.8125 -1.8125,-5.84375 z m 16.5,10.71875 -19.96875,7.4375 1.375,3.71875 11.78125,-4.375 c 0.37818,-0.14108 0.78031,-0.32115 1.1875,-0.5 0.40715,-0.17885 0.77981,-0.35942 1.125,-0.53125 0.40188,-0.19301 0.78912,-0.36002 1.1875,-0.5625 l -12.125,14.4375 1.8125,4.90625 20,-7.46875 -1.375,-3.71875 -11.625,4.34375 c -0.47276,0.17633 -0.9518,0.36603 -1.40625,0.5625 -0.45449,0.19642 -0.83287,0.38713 -1.1875,0.5625 -0.42084,0.20003 -0.83927,0.39837 -1.21875,0.59375 l 12.21875,-14.625 -1.78125,-4.78125 z m 687.3125,6.5 -6.25,15.5625 19.7812,7.96875 6.5,-16.15625 -3.2187,-1.28125 -4.8125,12 -5.2188,-2.09375 4.25,-10.5625 -3.1874,-1.28125 -4.25,10.5625 -4.9688,-2 4.5938,-11.4375 L 743,527.65625 z M 63.09375,540.75 50.875,546.125 c -1.32972,0.58604 -2.37701,1.32209 -3.15625,2.15625 -0.77925,0.83416 -1.30322,1.74525 -1.59375,2.75 -0.2905,1.00474 -0.37555,2.07479 -0.21875,3.21875 0.15678,1.14394 0.49405,2.31234 1.03125,3.53125 0.56158,1.27433 1.25186,2.38229 2.03125,3.3125 0.77939,0.9302 1.64137,1.66342 2.625,2.15625 0.98362,0.49281 2.0799,0.71575 3.25,0.71875 1.17008,0.003 2.41104,-0.28491 3.75,-0.875 l 12,-5.28125 -1.78125,-4.09375 -11.75,5.1875 c -0.84031,0.37032 -1.63664,0.578 -2.34375,0.625 -0.70714,0.047 -1.33216,-0.0546 -1.90625,-0.28125 -0.57411,-0.2267 -1.09575,-0.55602 -1.53125,-1.03125 -0.43552,-0.47525 -0.80074,-1.05391 -1.09375,-1.71875 -0.28895,-0.65563 -0.444,-1.29132 -0.5,-1.90625 -0.05598,-0.61495 0.03364,-1.20251 0.25,-1.75 0.21636,-0.5475 0.55642,-1.06561 1.0625,-1.53125 0.50582,-0.46603 1.17816,-0.85655 2,-1.21875 l 11.875,-5.25 L 63.09375,540.75 z M 736.25,544.4375 728.5625,561 l 3.1563,1.46875 2.875,-6.25 16.2187,7.5 1.875,-4.03125 -16.2187,-7.53125 2.9062,-6.25 -3.125,-1.46875 z M 71.875,560.375 52.84375,570 l 2,3.96875 7,-3.53125 4.90625,9.75 3.09375,-1.5625 -4.9375,-9.75 5.90625,-2.96875 5.0625,10.0625 3.09375,-1.5625 L 71.875,560.375 z m 658.1875,3.59375 c -0.7748,0.0307 -1.5131,0.2385 -2.2187,0.625 -0.7058,0.38654 -1.407,0.97198 -2.0626,1.75 -0.6555,0.77807 -1.288,1.76819 -1.9374,3 -0.5742,1.08904 -1.0242,2.13331 -1.3126,3.15625 -0.2884,1.02298 -0.3855,1.98644 -0.3124,2.875 0.0733,0.88859 0.3406,1.70961 0.8124,2.4375 0.4718,0.72787 1.1878,1.31833 2.125,1.8125 0.6875,0.36241 1.337,0.5933 1.9376,0.6875 0.6005,0.0942 1.1457,0.10794 1.6874,0 0.5417,-0.10792 1.0825,-0.31069 1.5626,-0.59375 0.48,-0.28304 0.9311,-0.61234 1.375,-1 0.444,-0.38765 0.8649,-0.81629 1.2812,-1.28125 0.4163,-0.46498 0.8426,-0.93656 1.25,-1.40625 0.4869,-0.59886 0.9699,-1.1781 1.4375,-1.71875 0.4675,-0.5406 0.9114,-0.9836 1.375,-1.34375 0.4637,-0.36013 0.9566,-0.60723 1.4375,-0.71875 0.4809,-0.11148 0.9509,-0.0229 1.4688,0.25 0.8658,0.45654 1.343,1.13872 1.375,2.0625 0.0318,0.9238 -0.3254,2.06731 -1.0313,3.40625 -0.4049,0.76764 -0.8269,1.37664 -1.25,1.84375 -0.4231,0.4671 -0.8363,0.83512 -1.2813,1.0625 -0.4451,0.22739 -0.8874,0.3533 -1.3437,0.375 -0.4564,0.0218 -0.9302,-0.0421 -1.4063,-0.15625 l -1.375,4.15625 c 0.9379,0.25526 1.8169,0.3328 2.6876,0.25 0.8706,-0.0828 1.7026,-0.36026 2.5,-0.8125 0.7974,-0.45225 1.5858,-1.10002 2.3124,-1.9375 0.7269,-0.83746 1.4037,-1.8753 2.0626,-3.125 0.7436,-1.41036 1.2646,-2.67812 1.5312,-3.84375 0.2671,-1.16561 0.3102,-2.20533 0.1562,-3.125 -0.1539,-0.91963 -0.4952,-1.72435 -1.0312,-2.40625 -0.536,-0.68189 -1.2369,-1.26691 -2.0938,-1.71875 -0.732,-0.38591 -1.4257,-0.62825 -2.0624,-0.71875 -0.6368,-0.0905 -1.2166,-0.0675 -1.7813,0.0625 -0.5648,0.13002 -1.1171,0.37347 -1.625,0.6875 -0.5078,0.31407 -1.0037,0.66595 -1.4687,1.09375 -0.4652,0.42784 -0.8995,0.89903 -1.3438,1.40625 -0.4443,0.50729 -0.8768,1.0393 -1.3125,1.5625 -0.4958,0.59418 -0.9738,1.1088 -1.4063,1.59375 -0.4326,0.48495 -0.8685,0.89172 -1.2812,1.1875 -0.4126,0.2958 -0.8021,0.46575 -1.2188,0.53125 -0.4166,0.0655 -0.8795,-0.005 -1.3437,-0.25 -0.3034,-0.16005 -0.5389,-0.39666 -0.75,-0.65625 -0.2111,-0.25957 -0.3443,-0.55698 -0.4063,-0.9375 -0.0619,-0.38049 -0.0592,-0.85174 0.0626,-1.375 0.1219,-0.52323 0.3829,-1.11622 0.75,-1.8125 0.5931,-1.1247 1.2404,-1.89521 1.9687,-2.28125 0.7283,-0.38601 1.553,-0.45064 2.4687,-0.21875 l 1.5,-4.09375 c -0.8791,-0.25818 -1.6939,-0.37445 -2.4687,-0.34375 z m -10.5,14.1875 -2.4063,4 5.0938,9.0625 L 711.875,591 l -2.4062,4 14.7187,-0.0625 7.5,4.5 2.2813,-3.84375 -7.5,-4.46875 -6.9063,-12.96875 z M 83.15625,581.875 60.8125,585.75 l 2.21875,3.875 5.65625,-1.0625 4.0625,7.03125 -3.78125,4.34375 2.1875,3.84375 14.625,-17.34375 -2.625,-4.5625 z m -1.53125,3.90625 c -0.01252,0.0188 -0.08013,0.10643 -0.21875,0.25 -0.13864,0.14362 -0.31587,0.33983 -0.53125,0.5625 -0.21544,0.22265 -0.46592,0.47094 -0.71875,0.75 -0.25286,0.27905 -0.47282,0.56283 -0.71875,0.84375 l -4.28125,4.875 -3.0625,-5.3125 6.375,-1.25 c 0.36655,-0.0709 0.72528,-0.14095 1.09375,-0.21875 0.36842,-0.0778 0.7035,-0.14735 1,-0.21875 0.29647,-0.0714 0.55862,-0.1357 0.75,-0.1875 0.19137,-0.0517 0.2812,-0.0878 0.3125,-0.0937 z m 6.75,11.625 c -0.96595,-0.0485 -1.95002,0.0942 -2.96875,0.375 -1.35833,0.37441 -2.73069,0.99619 -4.125,1.90625 -1.34365,0.87695 -2.47705,1.87054 -3.375,2.96875 -0.89798,1.09821 -1.50241,2.28534 -1.84375,3.5625 -0.3413,1.27718 -0.37226,2.62952 -0.09375,4.0625 0.2785,1.43294 0.92814,2.92232 1.9375,4.46875 0.77215,1.18306 1.57511,2.12814 2.4375,2.8125 0.86238,0.68433 1.73811,1.17506 2.625,1.5 0.88689,0.32492 1.79482,0.51135 2.6875,0.53125 0.89264,0.0199 1.74927,-0.0616 2.5625,-0.21875 l -0.90625,-4.0625 c -0.51888,0.10971 -1.05668,0.172 -1.625,0.1875 -0.56833,0.0154 -1.1522,-0.0523 -1.71875,-0.21875 -0.56656,-0.16647 -1.124,-0.43086 -1.65625,-0.8125 -0.53228,-0.38165 -1.011,-0.92359 -1.46875,-1.625 -0.60669,-0.92957 -0.97347,-1.85132 -1.09375,-2.71875 -0.12029,-0.86744 -0.03198,-1.68221 0.25,-2.46875 0.28196,-0.78654 0.73137,-1.5155 1.375,-2.21875 0.6436,-0.70325 1.44542,-1.36207 2.375,-1.96875 0.938,-0.61221 1.8328,-1.07997 2.71875,-1.375 0.88592,-0.295 1.74865,-0.40905 2.5625,-0.34375 0.81383,0.0653 1.56501,0.32085 2.28125,0.78125 0.71621,0.46041 1.37861,1.15828 1.96875,2.0625 0.41914,0.64224 0.70884,1.26041 0.875,1.875 0.16613,0.61457 0.24375,1.19746 0.21875,1.75 -0.025,0.55254 -0.12176,1.05729 -0.3125,1.53125 -0.19077,0.47394 -0.44696,0.91475 -0.75,1.28125 l 3.03125,2.6875 c 0.57229,-0.71094 1.04378,-1.46861 1.375,-2.28125 0.33118,-0.81267 0.50395,-1.66617 0.53125,-2.59375 0.02721,-0.92757 -0.11175,-1.90292 -0.4375,-2.9375 -0.32583,-1.03456 -0.86387,-2.14634 -1.625,-3.3125 -0.98176,-1.50419 -2.06674,-2.66727 -3.21875,-3.5 -1.15204,-0.83271 -2.36057,-1.35144 -3.625,-1.5625 -0.31612,-0.0528 -0.64677,-0.10883 -0.96875,-0.125 z m 621.5938,0.8125 c -0.5745,0.0289 -1.1305,0.14297 -1.6876,0.375 -0.7427,0.30943 -1.4842,0.82722 -2.2187,1.53125 -0.7343,0.7041 -1.5047,1.62534 -2.2813,2.78125 -0.6865,1.02191 -1.2295,2.01346 -1.625,3 -0.3953,0.98658 -0.604,1.95243 -0.625,2.84375 -0.0214,0.89135 0.1706,1.69489 0.5626,2.46875 0.3917,0.77389 1.0267,1.47164 1.9062,2.0625 0.645,0.43335 1.2567,0.71758 1.8438,0.875 0.5871,0.15746 1.1686,0.20605 1.7187,0.15625 0.5502,-0.0498 1.0864,-0.17576 1.5937,-0.40625 0.5076,-0.23048 0.9862,-0.50541 1.4688,-0.84375 0.4826,-0.33831 0.943,-0.73809 1.4062,-1.15625 0.4634,-0.41815 0.9513,-0.8262 1.4063,-1.25 0.5477,-0.54378 1.0714,-1.07457 1.5937,-1.5625 0.5225,-0.48791 1.032,-0.8786 1.5313,-1.1875 0.4992,-0.30886 0.9787,-0.47145 1.4687,-0.53125 0.4901,-0.0598 0.983,0.0486 1.4688,0.375 0.8125,0.5459 1.191,1.2968 1.125,2.21875 -0.0663,0.92198 -0.5308,1.9936 -1.375,3.25 -0.484,0.72036 -0.936,1.29922 -1.4062,1.71875 -0.4704,0.41954 -0.9397,0.72742 -1.4063,0.90625 -0.4667,0.17884 -0.9501,0.24555 -1.4063,0.21875 -0.456,-0.0268 -0.9138,-0.11726 -1.375,-0.28125 l -1.8124,3.96875 c 0.9055,0.3531 1.8128,0.5524 2.6874,0.5625 0.8747,0.0101 1.7216,-0.16621 2.5626,-0.53125 0.8409,-0.36502 1.6571,-0.93194 2.4687,-1.6875 0.8115,-0.75559 1.6183,-1.73358 2.4063,-2.90625 0.8891,-1.32342 1.5173,-2.55677 1.9062,-3.6875 0.3889,-1.1307 0.555,-2.13168 0.5,-3.0625 -0.0555,-0.93078 -0.2895,-1.76505 -0.75,-2.5 -0.4606,-0.73492 -1.102,-1.39726 -1.9062,-1.9375 -0.6868,-0.46145 -1.3452,-0.74866 -1.9688,-0.90625 -0.6235,-0.15759 -1.2059,-0.22555 -1.7812,-0.15625 -0.5754,0.0693 -1.1493,0.24166 -1.6876,0.5 -0.5383,0.25838 -1.0545,0.59275 -1.5624,0.96875 -0.5081,0.37603 -1.0044,0.79279 -1.5,1.25 -0.4956,0.45724 -1.0113,0.90097 -1.5,1.375 -0.5562,0.53819 -1.0497,1.03248 -1.5313,1.46875 -0.4816,0.4363 -0.9645,0.78095 -1.4063,1.03125 -0.4417,0.25032 -0.8599,0.38535 -1.2812,0.40625 -0.4213,0.0209 -0.8457,-0.11356 -1.2812,-0.40625 -0.2849,-0.19132 -0.5364,-0.43821 -0.7188,-0.71875 -0.1823,-0.28052 -0.2603,-0.61507 -0.2812,-1 -0.021,-0.3849 0.0419,-0.80513 0.2187,-1.3125 0.1767,-0.50733 0.4985,-1.09667 0.9375,-1.75 0.7091,-1.05539 1.4223,-1.75596 2.1875,-2.0625 0.7652,-0.30648 1.614,-0.29656 2.5,0.0312 l 1.9063,-3.90625 c -0.8468,-0.35006 -1.6639,-0.54195 -2.4376,-0.59375 -0.1934,-0.0129 -0.371,-0.01 -0.5624,0 z M 101.28125,610.9375 98.5,612.96875 l 4.0625,5.5625 -14.4375,10.5625 2.625,3.59375 14.4375,-10.53125 4.09375,5.5625 2.78125,-2.03125 -10.78125,-14.75 z m 591.68755,7.90625 -10.3438,13.1875 16.75,13.1875 10.75,-13.6875 -2.7188,-2.125 -7.9687,10.15625 -4.4063,-3.46875 7.0313,-8.9375 -2.7187,-2.15625 -7.0313,8.96875 -4.2187,-3.3125 7.5937,-9.6875 -2.7187,-2.125 z m -580.25005,7.6875 -10.34375,8.4375 c -1.12605,0.91847 -1.93934,1.89493 -2.46875,2.90625 -0.52942,1.01132 -0.7996,2.04793 -0.8125,3.09375 -0.01294,1.04582 0.20095,2.09515 0.65625,3.15625 0.45525,1.0611 1.09556,2.09278 1.9375,3.125 0.88021,1.07911 1.81383,1.96673 2.8125,2.65625 0.99864,0.6895 2.04574,1.13016 3.125,1.34375 1.07924,0.21355 2.18381,0.18356 3.3125,-0.125 1.12866,-0.30858 2.27237,-0.91891 3.40625,-1.84375 L 124.5,641 l -2.84375,-3.46875 -9.9375,8.09375 c -0.71158,0.58045 -1.39332,0.98545 -2.0625,1.21875 -0.66919,0.23331 -1.3238,0.34715 -1.9375,0.28125 -0.61371,-0.0659 -1.20382,-0.28267 -1.75,-0.625 -0.5462,-0.34234 -1.04078,-0.81199 -1.5,-1.375 -0.45287,-0.55521 -0.78256,-1.10959 -1,-1.6875 -0.21748,-0.57794 -0.28175,-1.1647 -0.21875,-1.75 0.063,-0.58532 0.26093,-1.16656 0.625,-1.75 0.36404,-0.58343 0.89779,-1.15109 1.59375,-1.71875 L 115.53125,630 l -2.8125,-3.46875 z m 568.43745,9.9375 c -0.3842,0.0157 -0.7681,0.0813 -1.1562,0.1875 -0.7761,0.21249 -1.557,0.61378 -2.375,1.21875 -0.8179,0.60502 -1.6764,1.42096 -2.5938,2.46875 -0.8108,0.92638 -1.4824,1.85299 -2,2.78125 -0.5176,0.92831 -0.8342,1.83738 -0.9687,2.71875 -0.1345,0.8814 -0.0715,1.74511 0.2187,2.5625 0.2903,0.81742 0.8278,1.55214 1.625,2.25 0.5846,0.51181 1.1564,0.89421 1.7188,1.125 0.5625,0.23081 1.1355,0.3545 1.6875,0.375 0.552,0.0205 1.0924,-0.0546 1.625,-0.21875 0.5326,-0.1641 1.0408,-0.382 1.5625,-0.65625 0.5217,-0.27421 1.0498,-0.58162 1.5625,-0.9375 0.5127,-0.35586 1.0261,-0.73122 1.5313,-1.09375 0.6123,-0.46975 1.2011,-0.89492 1.7812,-1.3125 0.5801,-0.41755 1.153,-0.75708 1.6875,-1 0.5345,-0.24288 1.0376,-0.34675 1.5313,-0.34375 0.4936,0.003 0.9657,0.17703 1.4062,0.5625 0.7363,0.64475 0.9954,1.4377 0.8125,2.34375 -0.183,0.90605 -0.753,1.92359 -1.75,3.0625 -0.5717,0.653 -1.1364,1.14366 -1.6563,1.5 -0.5198,0.35635 -1.0144,0.60069 -1.5,0.71875 -0.4855,0.1181 -0.9572,0.1471 -1.4062,0.0625 -0.449,-0.0846 -0.8759,-0.24748 -1.3125,-0.46875 l -2.3125,3.71875 c 0.8533,0.46535 1.7275,0.75377 2.5938,0.875 0.8661,0.12123 1.7132,0.0677 2.5937,-0.1875 0.8806,-0.25516 1.7865,-0.72872 2.6875,-1.375 0.901,-0.64625 1.8195,-1.4995 2.75,-2.5625 1.0502,-1.19968 1.8455,-2.33413 2.375,-3.40625 0.5295,-1.0721 0.812,-2.06969 0.875,-3 0.0634,-0.93028 -0.0741,-1.77495 -0.4375,-2.5625 -0.3634,-0.7875 -0.9273,-1.51814 -1.6563,-2.15625 -0.6225,-0.54501 -1.214,-0.92066 -1.8124,-1.15625 -0.5986,-0.23554 -1.2017,-0.371 -1.7813,-0.375 -0.5795,-0.004 -1.152,0.0934 -1.7187,0.28125 -0.5669,0.18785 -1.1359,0.44162 -1.6876,0.75 -0.5516,0.30842 -1.0752,0.64076 -1.625,1.03125 -0.5497,0.39054 -1.1112,0.81069 -1.6562,1.21875 -0.62,0.46313 -1.1855,0.87849 -1.7188,1.25 -0.5331,0.37155 -1.0613,0.65164 -1.5312,0.84375 -0.47,0.19213 -0.892,0.2829 -1.3125,0.25 -0.4206,-0.0328 -0.8239,-0.24807 -1.2187,-0.59375 -0.2582,-0.22598 -0.4799,-0.47981 -0.625,-0.78125 -0.1457,-0.30142 -0.1843,-0.64677 -0.1563,-1.03125 0.0281,-0.38444 0.1353,-0.80046 0.375,-1.28125 0.2399,-0.48072 0.6379,-1.03275 1.1563,-1.625 0.8374,-0.95668 1.6395,-1.54322 2.4374,-1.75 0.798,-0.20674 1.6317,-0.0941 2.4688,0.34375 l 2.4062,-3.625 c -0.7953,-0.45486 -1.5829,-0.75654 -2.3437,-0.90625 -0.3804,-0.0748 -0.772,-0.10945 -1.1563,-0.0937 z m -554.87495,6.59375 -15.71875,14.40625 3.03125,3.3125 5.96875,-5.5 3.53125,3.875 -2.625,9.125 3.40625,3.6875 2.6875,-10.3125 c 0.57597,0.38913 1.19837,0.68641 1.84375,0.875 0.64534,0.18853 1.30638,0.25795 1.96875,0.21875 0.66233,-0.0392 1.32132,-0.19676 1.96875,-0.46875 0.64741,-0.27197 1.25621,-0.64866 1.84375,-1.1875 0.72135,-0.66163 1.27029,-1.38594 1.625,-2.15625 0.35465,-0.77032 0.51355,-1.60618 0.46875,-2.46875 -0.0449,-0.86257 -0.29756,-1.75375 -0.75,-2.6875 -0.45249,-0.93374 -1.13093,-1.89334 -2.03125,-2.875 l -7.21875,-7.84375 z m 0.46875,5.625 3.875,4.21875 c 0.85259,0.92961 1.31765,1.81322 1.40625,2.65625 0.0885,0.84303 -0.26527,1.60995 -1.03125,2.3125 -0.34957,0.32055 -0.70142,0.56428 -1.09375,0.71875 -0.39237,0.15444 -0.79878,0.2199 -1.21875,0.1875 -0.42,-0.0324 -0.84202,-0.15873 -1.28125,-0.40625 -0.43929,-0.24754 -0.8936,-0.63416 -1.34375,-1.125 l -3.9375,-4.3125 4.625,-4.25 z m 541.0312,0.34375 -2.7812,2.84375 8.8438,8.65625 c 0.3605,0.35294 0.7226,0.70342 1.0937,1.03125 0.371,0.32784 0.7217,0.59736 1.0313,0.84375 0.3599,0.29588 0.7243,0.58338 1.0624,0.84375 l -18.4374,-4.84375 -3.5626,3.65625 15.2188,14.90625 2.7812,-2.84375 -9,-8.78125 c -0.2883,-0.28236 -0.5712,-0.58242 -0.9062,-0.875 -0.335,-0.29248 -0.6664,-0.54184 -0.9688,-0.78125 -0.3454,-0.28174 -0.7099,-0.56924 -1.0624,-0.84375 l 18.25,4.84375 3.6562,-3.75 -15.2188,-14.90625 z M 141,658.8125 125.875,673.84375 129.03125,677 144.15625,661.96875 141,658.8125 z m 512.0312,5.125 -12.375,11.3125 14.375,15.75 12.8438,-11.71875 -2.3438,-2.5625 -9.5312,8.71875 -3.7812,-4.125 8.4062,-7.6875 -2.3438,-2.5625 -8.4062,7.6875 -3.5938,-3.9375 9.0626,-8.3125 -2.3126,-2.5625 z m -506.62495,0.40625 -14.5,15.625 2.90625,2.6875 8.5625,-9.21875 c 0.27452,-0.2959 0.52899,-0.59485 0.8125,-0.9375 0.2835,-0.34264 0.55002,-0.69144 0.78125,-1 0.2724,-0.35294 0.54749,-0.70268 0.8125,-1.0625 l -4.375,18.375 3.84375,3.5625 14.53125,-15.625 -2.9375,-2.71875 -8.40625,9.09375 c -0.3432,0.36987 -0.68219,0.74536 -1,1.125 -0.31783,0.37963 -0.60568,0.71529 -0.84375,1.03125 -0.28615,0.36774 -0.56125,0.74872 -0.8125,1.09375 l 4.375,-18.5625 -3.75,-3.46875 z m 492.62495,12.3125 -12.125,10 13.5626,16.46875 3.4374,-2.84375 -4.9687,-6.03125 8.4063,-6.9375 -2.1876,-2.6875 -8.4062,6.9375 -4.2188,-5.09375 8.7188,-7.15625 -2.2188,-2.65625 z m -476.3437,5.15625 c -0.3294,-3.6e-4 -0.64457,0.0235 -0.96875,0.0625 -1.29676,0.15616 -2.55542,0.61911 -3.75,1.375 -1.19482,0.75557 -2.31846,1.77562 -3.375,3.0625 -1.01813,1.24009 -1.77813,2.50166 -2.3125,3.8125 -0.53438,1.31084 -0.77295,2.65123 -0.71875,3.96875 0.0542,1.31752 0.42109,2.61672 1.125,3.90625 0.70391,1.28951 1.79153,2.52131 3.25,3.71875 0.88131,0.72356 1.77559,1.32494 2.6875,1.8125 0.91188,0.48754 1.81004,0.87324 2.6875,1.15625 0.87743,0.283 1.71594,0.4741 2.53125,0.5625 0.81528,0.0883 1.56186,0.10605 2.25,0.0312 l 4.96875,-6.0625 -7.15625,-5.90625 -2.09375,2.5625 4,3.28125 -1.875,2.28125 c -0.35007,0.0129 -0.73397,-0.002 -1.1875,-0.0937 -0.45356,-0.0917 -0.938,-0.24282 -1.4375,-0.4375 -0.49953,-0.19468 -1.00707,-0.45021 -1.53125,-0.75 -0.5242,-0.29981 -1.03211,-0.65269 -1.53125,-1.0625 -0.85011,-0.69798 -1.45676,-1.44915 -1.84375,-2.25 -0.38703,-0.80084 -0.5757,-1.61782 -0.5625,-2.46875 0.0131,-0.85093 0.20351,-1.71294 0.59375,-2.59375 0.39022,-0.88082 0.92062,-1.76707 1.625,-2.625 0.71075,-0.86571 1.45067,-1.55578 2.21875,-2.09375 0.76806,-0.53794 1.55961,-0.8963 2.375,-1.0625 0.81536,-0.16617 1.65512,-0.11818 2.5,0.125 0.84484,0.24321 1.70456,0.70189 2.5625,1.40625 0.58491,0.48025 1.03077,0.98894 1.375,1.5 0.34418,0.5111 0.62306,1.01623 0.78125,1.53125 0.15813,0.51503 0.2064,1.03108 0.1875,1.53125 -0.019,0.50017 -0.0774,0.97908 -0.21875,1.4375 l 3.96875,1.65625 c 0.29607,-0.85364 0.44595,-1.73113 0.46875,-2.59375 0.0227,-0.86263 -0.1092,-1.72312 -0.40625,-2.59375 -0.29715,-0.87059 -0.76554,-1.72823 -1.40625,-2.59375 -0.64077,-0.86553 -1.49398,-1.74211 -2.53125,-2.59375 -1.42729,-1.1718 -2.8386,-1.99495 -4.21875,-2.46875 -1.03514,-0.35512 -2.04306,-0.53016 -3.03125,-0.53125 z m 462,6.59375 -13.5,10 12.6875,17.125 14,-10.34375 -2.0625,-2.78125 -10.4063,7.71875 -3.3124,-4.53125 9.125,-6.78125 -2.0313,-2.75 -9.1563,6.75 -3.1874,-4.3125 9.875,-7.3125 -2.0313,-2.78125 z m -17.5,15.0625 c -0.9938,-0.0176 -2.0255,0.12792 -3.0625,0.4375 -1.3828,0.41283 -2.7728,1.06058 -4.1562,1.96875 l -6.4376,4.25 11.6876,17.8125 7.2187,-4.71875 c 1.2232,-0.80297 2.2585,-1.76071 3.0625,-2.84375 0.8039,-1.08303 1.316,-2.23129 1.5938,-3.5 0.2774,-1.26869 0.292,-2.64279 0,-4.0625 -0.2923,-1.41968 -0.9316,-2.859 -1.9063,-4.34375 -0.9968,-1.51844 -2.0918,-2.66823 -3.2813,-3.46875 -1.1893,-0.80051 -2.444,-1.29991 -3.75,-1.46875 -0.3264,-0.0422 -0.6374,-0.0566 -0.9687,-0.0625 z m -1.5625,3.9375 c 0.4182,-0.0226 0.8405,0.0216 1.25,0.0937 0.819,0.14438 1.6051,0.47443 2.375,1.03125 0.77,0.55688 1.5064,1.36866 2.1875,2.40625 0.6646,1.01233 1.1055,1.99541 1.3437,2.9375 0.2379,0.94212 0.2839,1.83011 0.1563,2.65625 -0.1276,0.82617 -0.4097,1.57042 -0.875,2.25 -0.4652,0.67962 -1.093,1.25714 -1.8437,1.75 l -3.1563,2.09375 -7.9063,-12.0625 2.6563,-1.75 c 0.8521,-0.5593 1.6772,-0.95285 2.5313,-1.1875 0.4269,-0.1173 0.863,-0.19618 1.2812,-0.21875 z M 224.8438,722.125 c -1.0205,-0.0139 -1.9693,0.14627 -2.875,0.46875 -1.2076,0.43 -2.3386,1.13773 -3.3438,2.125 -1.0053,0.9873 -1.8799,2.21459 -2.6562,3.6875 -0.7482,1.41939 -1.249,2.82258 -1.5,4.21875 -0.2512,1.3962 -0.2286,2.74915 0.0937,4.03125 0.3223,1.28211 0.9665,2.4767 1.9063,3.59375 0.9397,1.11706 2.21,2.10763 3.8437,2.96875 1.2497,0.65877 2.4137,1.07095 3.5,1.25 1.0863,0.17904 2.0982,0.17823 3.0313,0.0312 0.9329,-0.14699 1.8038,-0.42738 2.5937,-0.84375 0.7898,-0.41638 1.4906,-0.87368 2.125,-1.40625 l -2.75,-3.125 c -0.4002,0.34801 -0.8233,0.67907 -1.3125,0.96875 -0.4892,0.28967 -1.0489,0.49517 -1.625,0.625 -0.576,0.1296 -1.1619,0.16875 -1.8125,0.0937 -0.6507,-0.0749 -1.3528,-0.32819 -2.0937,-0.71875 -0.982,-0.51761 -1.7547,-1.11282 -2.2813,-1.8125 -0.5267,-0.69969 -0.8329,-1.4568 -0.9687,-2.28125 -0.1357,-0.82445 -0.0959,-1.69761 0.125,-2.625 0.2208,-0.92738 0.5761,-1.89304 1.0937,-2.875 0.5223,-0.99087 1.0879,-1.84287 1.7187,-2.53125 0.6311,-0.68837 1.3194,-1.19285 2.0626,-1.53125 0.743,-0.33836 1.5565,-0.4918 2.4062,-0.4375 0.8497,0.0544 1.7323,0.34027 2.6875,0.84375 0.6785,0.35764 1.2436,0.76235 1.6875,1.21875 0.4438,0.45642 0.7846,0.94246 1.0312,1.4375 0.2466,0.49507 0.4048,0.99308 0.4688,1.5 0.063,0.50692 0.0557,1.00117 -0.0312,1.46875 l 4,0.875 c 0.1549,-0.89946 0.1678,-1.78506 0.0624,-2.65625 -0.1054,-0.87119 -0.3856,-1.70731 -0.8124,-2.53125 -0.427,-0.82391 -1.0251,-1.62909 -1.8126,-2.375 -0.7873,-0.7459 -1.7993,-1.44438 -3.0312,-2.09375 -1.589,-0.83758 -3.0885,-1.332 -4.5,-1.5 -0.3529,-0.042 -0.6911,-0.0579 -1.0312,-0.0625 z m 19.0937,9.6875 c -1.0323,0.042 -1.9906,0.26244 -2.9063,0.625 -1.2209,0.48342 -2.3318,1.22045 -3.3124,2.25 -0.9806,1.02957 -1.814,2.32663 -2.5,3.84375 -0.6612,1.46198 -1.0709,2.89539 -1.2188,4.3125 -0.148,1.41713 -0.007,2.76471 0.4062,4.03125 0.413,1.26654 1.1021,2.41671 2.0938,3.46875 0.9917,1.05203 2.31,1.95155 3.9375,2.6875 1.5355,0.69436 3.0342,1.08335 4.4687,1.15625 1.4345,0.0728 2.7549,-0.15608 4,-0.65625 1.2451,-0.50017 2.3944,-1.27495 3.4063,-2.3125 1.0119,-1.03755 1.8452,-2.29537 2.5313,-3.8125 0.6819,-1.50793 1.0999,-2.99251 1.2187,-4.40625 0.1187,-1.41371 -0.0587,-2.72815 -0.5,-3.96875 -0.4413,-1.24059 -1.15,-2.38639 -2.1563,-3.40625 -1.0063,-1.01985 -2.3247,-1.87858 -3.9062,-2.59375 -1.5815,-0.71515 -3.0717,-1.1009 -4.5,-1.1875 -0.3571,-0.0216 -0.7184,-0.0452 -1.0625,-0.0312 z m 303.0313,3.625 c -0.4478,0.01 -0.9376,0.0626 -1.4376,0.15625 -1,0.18731 -2.1236,0.55142 -3.4062,1.09375 -1.1339,0.47949 -2.1604,1.01575 -3.0312,1.625 -0.8709,0.6093 -1.5568,1.297 -2.0626,2.03125 -0.5056,0.7343 -0.8102,1.51288 -0.9062,2.375 -0.0956,0.86216 0.0873,1.77411 0.5,2.75 0.3026,0.71568 0.6572,1.32813 1.0625,1.78125 0.4052,0.45316 0.8248,0.80309 1.3125,1.0625 0.4877,0.25942 1.0117,0.4152 1.5625,0.5 0.5508,0.0848 1.1297,0.11275 1.7187,0.0937 0.5891,-0.019 1.1959,-0.0598 1.8126,-0.15625 0.6166,-0.0964 1.231,-0.20681 1.8437,-0.3125 0.7561,-0.15533 1.4833,-0.28377 2.1875,-0.40625 0.7042,-0.12245 1.3505,-0.17095 1.9375,-0.15625 0.5869,0.0148 1.0883,0.12564 1.5313,0.34375 0.4428,0.21815 0.8032,0.58595 1.0312,1.125 0.3812,0.90157 0.2787,1.73342 -0.2812,2.46875 -0.5601,0.73534 -1.5434,1.37924 -2.9376,1.96875 -0.7993,0.338 -1.5018,0.56255 -2.125,0.65625 -0.6231,0.0937 -1.1678,0.0745 -1.6562,-0.0312 -0.4884,-0.10571 -0.9455,-0.29041 -1.3125,-0.5625 -0.3671,-0.27209 -0.6726,-0.57907 -0.9687,-0.96875 l -3.7188,2.3125 c 0.5646,0.79115 1.2111,1.45034 1.9375,1.9375 0.7264,0.48716 1.5651,0.78273 2.4687,0.9375 0.9037,0.15476 1.876,0.15692 2.9688,-0.0312 1.0927,-0.18815 2.2925,-0.57478 3.5938,-1.125 1.4685,-0.62095 2.6805,-1.29776 3.625,-2.03125 0.9443,-0.73347 1.6619,-1.50315 2.125,-2.3125 0.463,-0.80934 0.7017,-1.63282 0.7187,-2.5 0.0168,-0.86715 -0.1852,-1.76399 -0.5625,-2.65625 -0.3223,-0.76214 -0.6894,-1.37057 -1.125,-1.84375 -0.4356,-0.47315 -0.918,-0.83681 -1.4375,-1.09375 -0.5195,-0.25692 -1.0644,-0.4216 -1.6563,-0.5 -0.5919,-0.0784 -1.2128,-0.0992 -1.8437,-0.0625 -0.6309,0.0367 -1.2724,0.10737 -1.9375,0.21875 -0.665,0.11141 -1.3316,0.24576 -2,0.375 -0.76,0.14606 -1.4519,0.27345 -2.0938,0.375 -0.6418,0.10195 -1.2433,0.12605 -1.75,0.0937 -0.5066,-0.0323 -0.9171,-0.16187 -1.2812,-0.375 -0.364,-0.21309 -0.6707,-0.54792 -0.875,-1.03125 -0.134,-0.31599 -0.1875,-0.66541 -0.1875,-1 9e-4,-0.33454 0.0883,-0.66635 0.2813,-1 0.1931,-0.33363 0.5118,-0.64085 0.9374,-0.96875 0.4257,-0.32785 0.9939,-0.66218 1.7188,-0.96875 1.1711,-0.4954 2.1606,-0.66223 2.9688,-0.5 0.808,0.16228 1.5003,0.61569 2.0624,1.375 l 3.75,-2.21875 c -0.5171,-0.75644 -1.0682,-1.37696 -1.6874,-1.84375 -0.6192,-0.46675 -1.3341,-0.75862 -2.125,-0.90625 -0.3956,-0.0738 -0.8023,-0.10367 -1.25,-0.0937 z m -301.5938,0.15625 c 0.856,0.005 1.7405,0.22799 2.6875,0.65625 0.9287,0.41995 1.69,0.92721 2.25,1.5625 0.5599,0.63531 0.9443,1.35158 1.1563,2.15625 0.2123,0.80468 0.2534,1.6919 0.125,2.625 -0.1286,0.93313 -0.4448,1.91689 -0.9063,2.9375 -0.4491,0.99303 -0.9614,1.85223 -1.5625,2.59375 -0.6011,0.74154 -1.2592,1.31727 -2,1.71875 -0.7409,0.40148 -1.5644,0.6046 -2.4375,0.625 -0.8731,0.0205 -1.8194,-0.2072 -2.8125,-0.65625 -0.9286,-0.41995 -1.6646,-0.96464 -2.2188,-1.625 -0.5542,-0.66036 -0.9212,-1.39569 -1.125,-2.21875 -0.2037,-0.82307 -0.2305,-1.70475 -0.0937,-2.65625 0.1368,-0.9515 0.4176,-1.92607 0.875,-2.9375 0.4615,-1.0206 1.0137,-1.87891 1.625,-2.59375 0.6111,-0.71481 1.287,-1.28399 2.0313,-1.65625 0.7442,-0.37224 1.5501,-0.53625 2.4062,-0.53125 z m 15.75,2.9375 -7.5938,19.90625 3.7188,1.4375 4.4688,-11.78125 c 0.1437,-0.37716 0.3028,-0.7636 0.4374,-1.1875 0.1346,-0.42386 0.2448,-0.8148 0.3438,-1.1875 0.1204,-0.42926 0.2327,-0.87962 0.3438,-1.3125 l 2.8437,18.65625 4.875,1.875 7.5937,-19.9375 -3.6874,-1.40625 -4.4376,11.59375 c -0.1797,0.47147 -0.3162,0.93523 -0.4687,1.40625 -0.1526,0.47103 -0.3038,0.89912 -0.4063,1.28125 -0.1276,0.44813 -0.24,0.86724 -0.3437,1.28125 l -2.9063,-18.8125 -4.7812,-1.8125 z m 272.2188,2.1875 -17.1563,6.21875 1.1875,3.25 6.4688,-2.34375 6.0937,16.8125 4.2187,-1.53125 -6.125,-16.8125 6.5,-2.34375 -1.1874,-3.25 z m -249.1876,6.71875 c -0.4798,0.0313 -0.9441,0.10434 -1.375,0.21875 -0.8616,0.22886 -1.6167,0.6573 -2.25,1.25 -0.6332,0.59274 -1.1161,1.39656 -1.4374,2.40625 -0.2356,0.74046 -0.3255,1.39223 -0.3126,2 0.0132,0.60779 0.1107,1.17327 0.3126,1.6875 0.2017,0.51425 0.4805,0.9836 0.8437,1.40625 0.3633,0.42267 0.7902,0.81883 1.25,1.1875 0.4599,0.36869 0.9377,0.70345 1.4687,1.03125 0.5311,0.32781 1.0597,0.65057 1.5938,0.96875 0.6753,0.37372 1.3229,0.76004 1.9375,1.125 0.6145,0.36497 1.1574,0.73207 1.5937,1.125 0.4362,0.39294 0.743,0.82755 0.9376,1.28125 0.1948,0.45371 0.2087,0.94226 0.0312,1.5 -0.2967,0.93277 -0.9088,1.52443 -1.8125,1.71875 -0.9037,0.1943 -2.0576,0.0527 -3.5,-0.40625 -0.827,-0.26311 -1.5281,-0.57211 -2.0625,-0.90625 -0.5343,-0.33415 -0.9477,-0.69577 -1.25,-1.09375 -0.3023,-0.39796 -0.4919,-0.8046 -0.5938,-1.25 -0.1001,-0.4454 -0.153,-0.91757 -0.125,-1.40625 l -4.3124,-0.625 c -0.0857,0.96817 -0.0162,1.87626 0.2187,2.71875 0.235,0.8425 0.633,1.60726 1.2187,2.3125 0.5858,0.70524 1.36,1.33849 2.3126,1.90625 0.9524,0.56776 2.0912,1.07168 3.4374,1.5 1.5193,0.48338 2.8994,0.7553 4.0938,0.8125 1.1943,0.057 2.2155,-0.0926 3.0938,-0.40625 0.878,-0.31364 1.6106,-0.78971 2.1874,-1.4375 0.5767,-0.64779 1.0189,-1.4206 1.3126,-2.34375 0.2506,-0.78853 0.3667,-1.51349 0.3437,-2.15625 -0.0232,-0.64274 -0.1475,-1.21696 -0.375,-1.75 -0.2275,-0.53302 -0.5389,-1.02423 -0.9375,-1.46875 -0.3987,-0.44452 -0.8719,-0.86755 -1.375,-1.25 -0.5031,-0.38244 -1.0474,-0.74582 -1.625,-1.09375 -0.5776,-0.34791 -1.1582,-0.6947 -1.75,-1.03125 -0.6723,-0.38331 -1.2589,-0.75348 -1.8125,-1.09375 -0.5536,-0.34027 -1.0423,-0.6772 -1.4063,-1.03125 -0.3639,-0.35402 -0.6121,-0.72637 -0.75,-1.125 -0.1376,-0.39862 -0.1278,-0.8437 0.0313,-1.34375 0.104,-0.32694 0.2816,-0.62146 0.5,-0.875 0.2183,-0.25351 0.5114,-0.43463 0.875,-0.5625 0.3637,-0.12787 0.8073,-0.18365 1.3437,-0.15625 0.5366,0.0277 1.1875,0.16764 1.9376,0.40625 1.2115,0.38551 2.0541,0.8824 2.5624,1.53125 0.5084,0.64887 0.7546,1.46388 0.6876,2.40625 l 4.2812,0.75 c 0.0992,-0.9109 0.073,-1.74273 -0.0938,-2.5 -0.1667,-0.75726 -0.4952,-1.46717 -1,-2.09375 -0.5049,-0.62655 -1.2123,-1.17938 -2.0937,-1.6875 -0.8815,-0.50809 -1.9855,-0.98402 -3.3125,-1.40625 -1.1732,-0.37323 -2.286,-0.61521 -3.3438,-0.71875 -0.5289,-0.0518 -1.0201,-0.0626 -1.5,-0.0312 z m 226.2188,1.4375 c -1.0844,0.0234 -2.2925,0.25178 -3.625,0.65625 -1.7188,0.52176 -3.1283,1.2207 -4.25,2.09375 -1.1218,0.8731 -1.9436,1.87635 -2.5,3.03125 -0.5563,1.15494 -0.855,2.43494 -0.875,3.84375 -0.0206,1.40884 0.2039,2.90676 0.6875,4.5 0.4661,1.53533 1.1031,2.89316 1.9063,4.0625 0.8031,1.16934 1.7755,2.09627 2.9062,2.78125 1.1307,0.68501 2.4213,1.08532 3.875,1.21875 1.4537,0.13349 3.0766,-0.0574 4.8438,-0.59375 1.3517,-0.41036 2.4766,-0.92599 3.375,-1.5625 0.8982,-0.6365 1.6274,-1.36443 2.1874,-2.125 0.5601,-0.76056 0.95,-1.55479 1.2188,-2.40625 0.2688,-0.85144 0.4543,-1.67526 0.5312,-2.5 L 516.5,761.59375 c -0.0398,0.52885 -0.1371,1.07505 -0.2812,1.625 -0.1441,0.54997 -0.3693,1.06515 -0.6876,1.5625 -0.3182,0.49738 -0.7346,0.9395 -1.25,1.34375 -0.5153,0.40425 -1.1673,0.72546 -1.9687,0.96875 -1.0622,0.32246 -2.0397,0.43971 -2.9063,0.3125 -0.8664,-0.12718 -1.6362,-0.44675 -2.3124,-0.9375 -0.6764,-0.49074 -1.2549,-1.15409 -1.75,-1.96875 -0.4952,-0.81464 -0.8964,-1.75032 -1.2188,-2.8125 -0.3254,-1.07181 -0.5275,-2.06688 -0.5625,-3 -0.0354,-0.93308 0.1158,-1.76816 0.4063,-2.53125 0.2903,-0.76306 0.7326,-1.44115 1.375,-2 0.6423,-0.55881 1.498,-0.99885 2.5312,-1.3125 0.7339,-0.22271 1.426,-0.3249 2.0625,-0.3125 0.6365,0.0124 1.1952,0.10271 1.7187,0.28125 0.5236,0.17858 1.0046,0.43428 1.4063,0.75 0.4016,0.31574 0.7329,0.66903 1,1.0625 l 3.4375,-2.15625 c -0.5225,-0.74833 -1.125,-1.42341 -1.8125,-1.96875 -0.6876,-0.5453 -1.4608,-0.93308 -2.3437,-1.21875 -0.883,-0.28564 -1.8844,-0.42955 -2.9688,-0.40625 z m -210.9688,2.90625 -3.3437,12.90625 c -0.3625,1.40726 -0.4544,2.68421 -0.2813,3.8125 0.1733,1.12829 0.5779,2.11888 1.1876,2.96875 0.6096,0.84987 1.4104,1.57169 2.4062,2.15625 0.9957,0.58456 2.1475,1.04294 3.4375,1.375 1.3486,0.34763 2.6308,0.50555 3.8437,0.46875 1.213,-0.0368 2.3168,-0.31338 3.3126,-0.78125 0.9956,-0.46788 1.8364,-1.14486 2.5624,-2.0625 0.726,-0.91766 1.2915,-2.08298 1.6563,-3.5 l 3.25,-12.6875 -4.3125,-1.125 -3.1875,12.4375 c -0.2289,0.8893 -0.5682,1.6029 -0.9687,2.1875 -0.4006,0.58462 -0.8731,1.03297 -1.4063,1.34375 -0.5333,0.3108 -1.1072,0.5144 -1.75,0.5625 -0.6428,0.0481 -1.3276,-0.0376 -2.0313,-0.21875 -0.6938,-0.17861 -1.2947,-0.41353 -1.8124,-0.75 -0.5179,-0.33648 -0.9225,-0.77254 -1.2188,-1.28125 -0.2962,-0.5087 -0.4782,-1.09558 -0.5312,-1.78125 -0.0527,-0.68567 0.0573,-1.47399 0.2812,-2.34375 l 3.2188,-12.5625 -4.3126,-1.125 z m 195.4688,1.59375 -4.3438,1.0625 3,12.46875 c 0.2153,0.89277 0.2988,1.70205 0.2188,2.40625 -0.0795,0.70422 -0.2999,1.31911 -0.625,1.84375 -0.3252,0.52465 -0.7674,0.93718 -1.3125,1.28125 -0.5451,0.34409 -1.1686,0.61111 -1.875,0.78125 -0.6965,0.1673 -1.3537,0.21055 -1.9687,0.15625 -0.6151,-0.0542 -1.156,-0.22099 -1.6563,-0.53125 -0.5003,-0.31023 -0.9443,-0.76295 -1.3125,-1.34375 -0.3683,-0.58078 -0.6647,-1.31435 -0.875,-2.1875 l -3.0312,-12.625 -4.3438,1.0625 3.125,12.96875 c 0.3402,1.41272 0.849,2.55362 1.5312,3.46875 0.6824,0.91514 1.5004,1.62922 2.4376,2.09375 0.937,0.46453 1.9713,0.7006 3.125,0.75 1.1536,0.0491 2.3924,-0.0631 3.6874,-0.375 1.3539,-0.3261 2.5399,-0.80466 3.5938,-1.40625 1.054,-0.60159 1.9338,-1.33841 2.5938,-2.21875 0.6597,-0.88033 1.0706,-1.88026 1.2812,-3.03125 0.2106,-1.15097 0.1551,-2.45246 -0.1875,-3.875 l -3.0625,-12.75 z M 320.0312,757.0625 316,778 l 3.9062,0.75 2.4376,-12.6875 c 0.0741,-0.38651 0.1377,-0.84592 0.2187,-1.375 0.0808,-0.52906 0.179,-1.05173 0.25,-1.53125 0.0766,-0.56069 0.1378,-1.13822 0.2187,-1.71875 0.068,0.82474 0.1245,1.63337 0.1876,2.375 0.0319,0.31444 0.0657,0.63453 0.0937,0.96875 0.029,0.33426 0.0667,0.65529 0.0937,0.96875 0.0271,0.31348 0.0688,0.60308 0.0938,0.875 0.024,0.27194 0.0395,0.51905 0.0625,0.71875 l 1.5313,12.40625 3.125,0.59375 6,-10.96875 c 0.0954,-0.1769 0.215,-0.38251 0.3437,-0.625 0.1287,-0.24248 0.265,-0.50006 0.4063,-0.78125 0.1412,-0.28116 0.2874,-0.57494 0.4374,-0.875 0.1501,-0.30004 0.3013,-0.59287 0.4376,-0.875 0.3231,-0.66756 0.673,-1.38194 1.0312,-2.125 -0.1148,0.49174 -0.2446,1.01169 -0.375,1.53125 -0.1054,0.44219 -0.2262,0.93644 -0.3438,1.46875 -0.1174,0.53234 -0.2155,1.02581 -0.3124,1.53125 l -2.4376,12.71875 3.9063,0.75 4,-20.96875 -5.8437,-1.125 -5.9376,11.09375 c -0.078,0.13916 -0.1862,0.29185 -0.2812,0.46875 -0.0956,0.17691 -0.1823,0.36578 -0.2812,0.5625 -0.0993,0.19673 -0.2113,0.38711 -0.3126,0.59375 -0.1013,0.20664 -0.1822,0.42827 -0.2812,0.625 -0.2201,0.45103 -0.4499,0.9175 -0.6875,1.40625 -0.038,-0.55185 -0.0677,-1.08533 -0.0937,-1.59375 -0.03,-0.43715 -0.0648,-0.87591 -0.0938,-1.34375 -0.0281,-0.46782 -0.0538,-0.86127 -0.0938,-1.1875 l -1.5,-12.4375 -5.875,-1.125 z m 146.0938,2.8125 c -0.7657,0.0327 -1.5606,0.13469 -2.375,0.28125 l -7.5938,1.375 3.7813,21 L 468.4062,781 c 1.4401,-0.25917 2.7421,-0.72507 3.9063,-1.40625 1.1641,-0.68116 2.1222,-1.56671 2.875,-2.625 0.7529,-1.05828 1.2747,-2.29815 1.5625,-3.71875 0.288,-1.42059 0.2833,-3.00203 -0.0312,-4.75 -0.3218,-1.78768 -0.8759,-3.29725 -1.6563,-4.5 -0.7804,-1.20271 -1.7399,-2.114 -2.875,-2.78125 -1.1352,-0.66721 -2.4099,-1.0877 -3.8437,-1.25 -0.717,-0.0811 -1.4531,-0.12645 -2.2188,-0.0937 z m -121.9375,1.65625 -2.75,21.125 17.25,2.25 0.4375,-3.40625 -12.8125,-1.6875 0.7187,-5.5625 11.2813,1.46875 0.4687,-3.4375 -11.3124,-1.46875 0.7187,-5.3125 12.1875,1.59375 0.4375,-3.40625 -16.625,-2.15625 z m 100.4375,1.1875 c -0.4099,0.0161 -0.8191,0.0741 -1.25,0.125 -1.7237,0.20386 -3.232,0.61818 -4.5,1.28125 -1.268,0.66312 -2.2976,1.51828 -3.0938,2.5625 -0.7961,1.04426 -1.3478,2.26832 -1.6562,3.65625 -0.3084,1.38795 -0.383,2.909 -0.1875,4.5625 0.1884,1.59339 0.5827,3.02239 1.1875,4.3125 0.6047,1.29013 1.43,2.3784 2.4375,3.25 1.0074,0.87162 2.2014,1.51712 3.5937,1.90625 1.3925,0.38909 2.9763,0.45976 4.75,0.25 1.6736,-0.1979 3.14,-0.63436 4.4063,-1.3125 1.2661,-0.67812 2.3167,-1.55391 3.125,-2.625 0.8081,-1.07106 1.3565,-2.3078 1.6875,-3.71875 0.3315,-1.41093 0.4143,-2.94022 0.2188,-4.59375 -0.1944,-1.64348 -0.6221,-3.10285 -1.25,-4.375 -0.6281,-1.2721 -1.4505,-2.32148 -2.4688,-3.15625 -1.0183,-0.83474 -2.2055,-1.42716 -3.5938,-1.78125 -1.0412,-0.26552 -2.1764,-0.39201 -3.4062,-0.34375 z m 21.0938,0.6875 c 0.4701,-0.0154 0.9362,0.003 1.375,0.0625 0.8776,0.11893 1.6468,0.42112 2.3437,0.875 0.6968,0.45391 1.2912,1.09216 1.7813,1.90625 0.49,0.81412 0.8425,1.80968 1.0624,3.03125 l 0.0313,0 c 0.214,1.1918 0.244,2.28994 0.0937,3.25 -0.1501,0.96009 -0.4649,1.79003 -0.9062,2.5 -0.4413,0.71001 -0.993,1.27593 -1.6875,1.71875 -0.6944,0.44283 -1.4911,0.74719 -2.375,0.90625 l -3.7187,0.6875 -2.5626,-14.21875 3.125,-0.5625 c 0.5016,-0.0904 0.9674,-0.14089 1.4376,-0.15625 z M 363.5625,763.96875 362,785.25 l 4.4375,0.3125 0.5937,-8.0625 5.25,0.375 4.3126,8.46875 5.0312,0.375 -5.0938,-9.375 c 0.6862,-0.11086 1.3381,-0.32046 1.9376,-0.625 0.5994,-0.30452 1.1066,-0.70532 1.5624,-1.1875 0.4558,-0.48217 0.8396,-1.04593 1.125,-1.6875 0.2855,-0.64155 0.4411,-1.36123 0.5,-2.15625 0.0725,-0.97613 -0.0122,-1.852 -0.2812,-2.65625 -0.2691,-0.80422 -0.7205,-1.49589 -1.3438,-2.09375 -0.6234,-0.59782 -1.4057,-1.09814 -2.375,-1.46875 -0.9692,-0.37056 -2.1403,-0.5887 -3.4687,-0.6875 l -10.625,-0.8125 z m 60.4687,0.96875 c -0.3124,-6.2e-4 -0.6362,0.0121 -0.9687,0.0312 l -10.6563,0.625 1.25,21.28125 4.4376,-0.25 -0.4688,-8.09375 5.25,-0.28125 5.4062,7.78125 5,-0.28125 -6.25,-8.625 c 0.6657,-0.20013 1.2584,-0.46303 1.8126,-0.84375 0.5542,-0.38069 1.0177,-0.86831 1.4062,-1.40625 0.3884,-0.53791 0.7076,-1.13895 0.9062,-1.8125 0.1982,-0.67352 0.2648,-1.39161 0.2188,-2.1875 -0.0564,-0.9772 -0.2839,-1.86311 -0.6562,-2.625 -0.3725,-0.76185 -0.8973,-1.39555 -1.5938,-1.90625 -0.6967,-0.51065 -1.553,-0.88506 -2.5625,-1.125 -0.7571,-0.17984 -1.5939,-0.27939 -2.5313,-0.28125 z m -31.1562,0.75 0.0625,21.34375 4.4687,-0.0312 -0.0312,-7.5 5.3125,0 c 1.3421,-0.003 2.4908,-0.2029 3.4687,-0.59375 0.978,-0.39085 1.8034,-0.90505 2.4376,-1.5625 0.634,-0.65742 1.1005,-1.4278 1.4062,-2.28125 0.3057,-0.85342 0.4375,-1.73794 0.4375,-2.65625 -0.002,-0.999 -0.149,-1.92327 -0.4687,-2.75 -0.3199,-0.82669 -0.8115,-1.53117 -1.4688,-2.125 -0.6573,-0.59379 -1.5002,-1.0494 -2.5,-1.375 -0.9998,-0.32559 -2.1689,-0.47175 -3.5312,-0.46875 l -9.5938,0 z M 444.5,766.25 c 0.7207,-0.0195 1.3943,0.09 2,0.28125 0.8075,0.2551 1.4968,0.67027 2.0938,1.25 0.5969,0.57976 1.0971,1.29077 1.4687,2.15625 0.3717,0.86553 0.6184,1.8564 0.75,2.96875 0.1241,1.08231 0.132,2.08587 0,3.03125 -0.1321,0.94539 -0.4164,1.805 -0.8437,2.53125 -0.4272,0.72628 -1.0128,1.31302 -1.75,1.78125 -0.7373,0.46824 -1.6365,0.77827 -2.7188,0.90625 -1.0121,0.1197 -1.9346,0.0295 -2.75,-0.25 -0.8155,-0.27953 -1.5256,-0.71272 -2.125,-1.3125 -0.5993,-0.59978 -1.0635,-1.36444 -1.4375,-2.25 -0.374,-0.88554 -0.6508,-1.86639 -0.7813,-2.96875 -0.1318,-1.11235 -0.1232,-2.13476 0.0313,-3.0625 0.1545,-0.9277 0.4609,-1.73451 0.9063,-2.4375 0.4452,-0.70298 1.0454,-1.28116 1.7812,-1.71875 0.7358,-0.43756 1.624,-0.72167 2.6562,-0.84375 0.2531,-0.0299 0.4786,-0.056 0.7188,-0.0625 z m -76.7188,1.5 5.6876,0.4375 c 1.2579,0.0936 2.2019,0.41509 2.8437,0.96875 0.6419,0.55369 0.9207,1.33849 0.8437,2.375 -0.0352,0.47299 -0.1322,0.90001 -0.3124,1.28125 -0.1802,0.38125 -0.4218,0.70479 -0.75,0.96875 -0.3282,0.26399 -0.7604,0.47332 -1.25,0.59375 -0.4897,0.12046 -1.0547,0.14315 -1.7188,0.0937 l -5.8125,-0.4375 0.4687,-6.28125 z m 55,0.71875 c 1.2594,-0.0727 2.2597,0.12929 2.9688,0.59375 0.709,0.46448 1.0963,1.21235 1.1562,2.25 0.0273,0.47351 -0.0278,0.91089 -0.1562,1.3125 -0.1285,0.40164 -0.3344,0.75766 -0.625,1.0625 -0.2907,0.30487 -0.6868,0.535 -1.1562,0.71875 -0.4696,0.18378 -1.0227,0.30545 -1.6876,0.34375 l -5.8437,0.34375 -0.375,-6.3125 5.7187,-0.3125 z m -25.4062,0.6875 4.5938,0 c 1.3218,-0.003 2.3377,0.2752 3,0.84375 0.6622,0.56859 0.9687,1.40009 0.9687,2.5 10e-4,0.52475 -0.0684,0.99819 -0.2187,1.4375 -0.1504,0.43933 -0.3705,0.81143 -0.6876,1.125 -0.3171,0.3136 -0.7085,0.57732 -1.1874,0.75 -0.479,0.17272 -1.0528,0.248 -1.7188,0.25 l -4.75,0 0,-6.90625 z"
       id="path3187"
       style="font-size:31px;font-style:normal;font-variant:normal;font-weight:bold;font-stretch:normal;text-align:center;line-height:110.00000238%;letter-spacing:0px;word-spacing:0px;text-anchor:middle;fill:#cccccc;fill-opacity:1;stroke:#cccccc;stroke-width:1;stroke-opacity:1;font-family:Liberation Sans;-inkscape-font-specification:Sans Bold" />
  </g>
</svg>
